<svg xmlns="http://www.w3.org/2000/svg" xmlns:xlink="http://www.w3.org/1999/xlink" width="28px" height="32px" viewBox="0 0 28 32"><title>rooster</title><g id="Home-1" stroke="none" stroke-width="1" fill="none" fill-rule="evenodd"><g id="Group-35-Copy" transform="translate(-26.000000, -27.000000)" fill="#F0F0ED"><g id="rooster" transform="translate(26.000000, 27.000000)"><path d="M17.6596128,16.0429688 C17.1635449,15.2226562 16.4194431,14.3203125 15.7166803,13.6640625 C15.1379344,13.1308594 14.5591886,12.5566406 13.8977648,12.1054688 C13.5257138,11.859375 13.1536629,11.5722656 12.905629,11.203125 C12.86429,11.1210938 12.781612,10.9980469 12.6575951,11.0800781 C12.5749171,11.1210938 12.5749171,11.2441406 12.6162561,11.3261719 C12.6162561,11.4082031 12.6162561,11.4902344 12.6575951,11.53125 C12.740273,11.859375 12.740273,12.1875 12.6575951,12.515625 C12.6162561,12.7617188 12.5335781,13.0488281 12.5335781,13.2949219 C12.5335781,13.5 12.5749171,13.6640625 12.6989341,13.828125 C12.86429,14.0742188 13.070985,14.3203125 13.2363409,14.5664062 C13.7737478,15.2636719 14.2698157,16.0019531 14.5178496,16.8632812 C14.6005276,17.1503906 14.6832056,17.4375 14.7658835,17.7246094 C14.7658835,17.765625 14.8072225,17.8066406 14.7658835,17.8476562 C14.6832056,17.8476562 14.6832056,17.765625 14.6418666,17.6835938 C14.5178496,17.3554688 14.3938326,16.9863281 14.2698157,16.6582031 C13.9804427,16.0019531 13.6497308,15.3457031 13.1536629,14.8125 C12.946968,14.5664062 12.6989341,14.3203125 12.5749171,13.9921875 C12.4509001,13.7460938 12.2855442,13.6230469 12.0375102,13.6230469 C11.8721543,13.6230469 11.6654593,13.6230469 11.5001034,13.6230469 C11.0867135,13.6640625 10.6733236,13.7050781 10.2599337,13.6230469 C9.55717085,13.5410156 8.97842499,13.2128906 8.60637409,12.5976562 C8.39967914,12.2285156 8.23432318,11.859375 8.1516452,11.4902344 C8.06896722,11.1210938 7.98628924,10.7929688 7.90361126,10.4238281 C7.61423834,8.82421875 7.15950945,7.265625 6.53942461,5.74804688 C6.20871269,5.00976562 5.79532279,4.3125 5.25791593,3.69726562 C5.17523795,3.57421875 5.05122098,3.45117188 4.88586502,3.41015625 C4.51381412,3.28710937 4.14176321,3.1640625 3.7697123,3.04101562 C3.68703432,3 3.56301736,3 3.43900039,3 C3.3976614,3 3.35632241,3.08203125 3.3976614,3.08203125 C3.48033938,3.1640625 3.52167837,3.24609375 3.60435634,3.328125 C3.7697123,3.53320312 3.93506826,3.69726562 4.05908523,3.94335937 C4.38979715,4.76367187 3.72837331,5.33789062 3.3976614,5.70703125 C3.19096645,5.91210937 3.14962746,6.15820312 3.10828847,6.4453125 C2.9842715,7.47070312 2.52954262,8.37304688 1.86811878,9.11132812 C1.66142383,9.35742188 1.49606788,9.60351562 1.53740686,9.93164062 C1.57874585,10.3417969 1.49606788,10.7519531 1.37205091,11.1621094 C1.28937293,11.5722656 1.16535596,11.9824219 1.04133899,12.3925781 C1.04133899,12.4746094 1,12.515625 1,12.5976562 C1,12.6386719 1.04133899,12.6796875 1.08267798,12.6796875 C1.12401697,12.6796875 1.33071192,12.5566406 1.37205091,12.515625 C1.45472889,12.4746094 1.49606788,12.4335938 1.57874585,12.515625 C1.66142383,12.5976562 1.62008484,12.6386719 1.62008484,12.7207031 C1.53740686,13.1308594 1.4133899,13.5820312 1.33071192,13.9921875 C1.24803394,14.3203125 1.20669495,14.6484375 1.20669495,14.9765625 C1.20669495,15.0585938 1.20669495,15.140625 1.20669495,15.2636719 C1.20669495,15.3867188 1.28937293,15.4277344 1.4133899,15.3867188 C1.90945777,15.1816406 2.36418666,14.8945312 2.73623756,14.484375 C2.94293251,14.2382812 3.19096645,13.9511719 3.3976614,13.7050781 C3.43900039,13.6640625 3.48033938,13.6230469 3.56301736,13.6640625 C3.60435634,13.7050781 3.64569533,13.7460938 3.60435634,13.828125 C3.52167837,13.9511719 3.31498342,14.3613281 3.23230544,14.6484375 C3.14962746,14.9355469 3.02561049,15.8789062 3.23230544,16.5351562 C3.3976614,17.0273438 3.56301736,17.5195312 3.81105129,17.9707031 C4.05908523,18.3808594 4.26578018,18.8320312 4.38979715,19.2832031 C4.43113614,19.3652344 4.47247513,19.4882812 4.51381412,19.5703125 C4.55515311,19.6113281 4.59649209,19.6113281 4.63783108,19.6113281 C4.72050906,19.5703125 4.80318704,19.5292969 4.84452603,19.4472656 C5.25791593,19.078125 5.67130582,18.6679688 5.96067875,18.1757812 C6.12603471,17.8886719 6.29139067,17.5605469 6.41540764,17.2734375 C6.49808562,17.0273438 6.5807636,16.9453125 6.91147551,17.0683594 C7.11817046,17.1503906 7.32486541,17.2324219 7.49022137,17.3144531 C7.86227227,17.5605469 8.23432318,17.8066406 8.5650351,18.1347656 C8.68905207,18.2988281 8.81306903,18.421875 8.97842499,18.5449219 C9.10244196,18.6679688 9.18511994,18.6679688 9.22645893,18.5039062 C9.3504759,18.1757812 9.43315388,17.8886719 9.43315388,17.5605469 C9.47449287,17.1503906 9.47449287,16.7402344 9.51583186,16.3710938 C9.51583186,16.3300781 9.55717085,16.2890625 9.55717085,16.2480469 C9.59850984,16.2070312 9.68118782,16.2480469 9.72252681,16.2890625 C9.76386579,16.3300781 9.80520478,16.3710938 9.84654377,16.4121094 C10.0945777,16.6582031 10.3839506,16.9042969 10.5906456,17.1914062 C11.2107304,17.8886719 11.7894763,18.6269531 12.1615272,19.4882813 C12.3682221,19.9804688 12.5335781,20.5136719 12.740273,21.046875 C13.112324,21.9492188 13.3603579,22.8925781 13.6083918,23.8359375 C13.6083918,23.8769531 13.6083918,23.9589844 13.7324088,24 C13.8564258,23.8769531 13.9804427,23.7539062 14.1044597,23.5898438 C14.2284767,23.4667969 14.3524936,23.34375 14.4765106,23.2617188 C15.0552565,22.9746094 15.4273074,22.5234375 15.6753413,21.9082031 C15.7580193,21.6210938 15.9233752,21.3339844 16.0060532,21.046875 C16.0060532,21.0058594 16.0473922,20.9238281 16.1300702,20.9648438 C16.1714092,20.9648438 16.2127482,21.0058594 16.2127482,21.046875 C16.3367651,21.3339844 16.5021211,21.6210938 16.6674771,21.8671875 C16.708816,21.9492188 16.791494,21.9902344 16.832833,22.0722656 C16.874172,22.1132813 16.915511,22.0722656 16.95685,22.03125 C16.998189,21.9492188 16.998189,21.8261719 16.998189,21.703125 C16.998189,21.0878906 17.1222059,20.4726562 17.3289009,19.8984375 C17.4115789,19.6933594 17.4529179,19.4882812 17.5355958,19.3242188 C17.7009518,18.8320312 17.8249688,18.3398438 17.9076467,17.8476562 C18.1143417,17.1503906 17.9489857,16.5761719 17.6596128,16.0429688" id="Path"></path><path d="M13.9846757,24.0468247 C13.9846757,23.9653938 13.943811,23.883963 13.943811,23.8432475 C13.6168932,22.4589228 13.1673811,21.1153135 12.6361397,19.8124196 C12.2274924,18.7945337 11.6145214,17.9395096 10.919821,17.0844855 C10.7563621,16.8809083 10.5520384,16.6773312 10.3477148,16.5144694 C10.3068501,16.473754 10.2659853,16.3923231 10.1433912,16.4330386 C10.1025264,16.6366157 10.1433912,16.8809083 10.1433912,17.0844855 C10.1433912,17.5323553 10.0616617,17.9395096 9.9390675,18.346664 C9.73474386,18.91668 9.6530144,18.7945337 9.32609656,18.4688103 C8.99917872,18.1023713 8.59053143,17.7766479 8.18188413,17.4509244 C7.93669576,17.2880627 7.69150738,17.1252009 7.40545427,17.0437701 C7.24199535,17.0030546 7.20113062,17.0030546 7.11940117,17.1659164 C6.99680698,17.4509244 6.87421279,17.695217 6.7516186,17.980225 C6.42470076,18.631672 5.97518874,19.1609726 5.40308252,19.568127 C5.32135307,19.6088424 5.23962361,19.6495578 5.15789415,19.6902733 C5.07616469,19.7309887 5.03529996,19.6902733 4.99443523,19.6495578 C4.9535705,19.6088424 4.9535705,19.568127 4.9535705,19.5274115 C4.83097631,18.9981109 4.5449232,18.5502411 4.29973483,18.0616559 C4.13627591,17.7766479 4.01368172,17.4916398 3.89108753,17.2066318 C3.60503443,16.5144694 3.48244024,15.822307 3.5641697,15.0487138 C3.60503443,14.7637058 3.76849334,14.1936897 3.76849334,14.1529743 C3.72762861,14.1529743 3.68676388,14.1936897 3.60503443,14.2751206 C3.52330497,14.4379823 3.48244024,14.4786977 3.35984605,14.600844 C3.03292821,14.9265675 2.66514565,15.2115755 2.21563362,15.3744373 C2.09303943,15.4151527 1.97044524,15.4558681 1.88871579,15.4558681 C1.7661216,15.4558681 1.68439214,15.4151527 1.68439214,15.2930064 C1.68439214,14.9672829 1.68439214,14.600844 1.7661216,14.2751206 C1.84785106,13.8272508 1.97044524,13.3386656 2.0521747,12.8907958 C2.09303943,12.6057878 1.84785106,12.7686495 1.72525687,12.8093649 C1.60266268,12.8500804 1.43920376,13.094373 1.31660957,12.9315112 C1.19401538,12.8093649 1.3574743,12.6465032 1.39833903,12.5243569 C1.68439214,11.7507637 1.84785106,10.936455 1.97044524,10.1221463 C1.97044524,10.0814309 2.01130997,10 1.88871579,10 C1.84785106,10 1.84785106,10.0407154 1.80698633,10.0407154 C1.72525687,10.1221463 1.68439214,10.2442926 1.60266268,10.3257235 C0.907962276,11.4250402 0.458450251,12.6057878 0.213261874,13.8679662 C0.0498029561,14.7637058 -0.0727912325,15.7001607 0.0498029561,16.6366157 C0.131532415,17.6137861 0.458450251,18.5502411 1.03055646,19.3645498 C1.52093322,20.0159967 2.09303943,20.5452974 2.74687511,20.9524517 C3.07379294,21.1560289 3.40071078,21.3596061 3.64589915,21.6038987 C4.09541118,22.011053 4.58578793,22.4182073 5.07616469,22.7439308 C5.19875888,22.8253617 5.23962361,22.9067925 5.28048834,23.0289388 C5.32135307,23.1918006 5.32135307,23.3139469 5.3622178,23.4768086 C5.48481198,23.9653938 5.56654144,24.453979 5.52567671,24.9832797 C5.48481198,25.390434 5.60740617,25.7568729 5.77086509,26.0825964 C5.89345928,26.2861736 5.97518874,26.326889 6.17951239,26.2047427 C6.3429713,26.1233118 6.50643022,26.0011655 6.66988914,25.8790192 C6.83334806,25.7975884 6.99680698,25.7161575 7.16026589,25.7161575 C7.40545427,25.7161575 7.56891319,25.8790192 7.52804846,26.1233118 C7.52804846,26.2454581 7.48718373,26.326889 7.446319,26.4083199 C7.446319,26.4490353 7.40545427,26.5304662 7.48718373,26.5711816 C7.52804846,26.5711816 7.56891319,26.5711816 7.60977792,26.5304662 C7.81410157,26.4083199 7.97756049,26.2047427 8.05928994,25.9197347 C8.10015467,25.7568729 8.10015467,25.6347266 8.1410194,25.4718649 C8.1410194,25.4311494 8.1410194,25.3497186 8.18188413,25.3090031 C8.26361359,25.2682877 8.30447832,25.3497186 8.38620778,25.390434 C8.42707251,25.4311494 8.46793724,25.5125803 8.5496667,25.5532958 C8.91744926,25.9604501 9.32609656,26.326889 9.77560858,26.5711816 C9.89820277,26.6526125 9.97993223,26.7340433 10.0616617,26.8561896 C10.2251206,27.1411977 10.3885795,27.4669211 10.6337679,27.7112137 C10.919821,28.0369372 11.4510625,28.1183681 11.7371156,27.7926446 C11.9005745,27.5890674 12.1457629,27.4669211 12.3909513,27.4262057 C12.5544102,27.3854903 12.6361397,27.3040594 12.7178691,27.1411977 C12.8404633,26.8969051 12.8404633,26.611897 12.7587338,26.3676044 C12.7178691,26.2047427 12.6361397,26.041881 12.5952749,25.8790192 C12.5544102,25.7161575 12.5135455,25.6754421 12.6770044,25.6347266 C12.9221928,25.5125803 13.0447869,25.3497186 13.1265164,25.105426 C13.2491106,24.7797025 13.4534342,24.5354099 13.7394873,24.3725482 C13.7803521,24.3318327 13.8212168,24.3318327 13.8620815,24.2911173 C13.9846757,24.2504019 14.0255405,24.168971 13.9846757,24.0468247" id="Path"></path><path d="M20.6698696,18 C20.9993137,16.8370607 20.9169526,15.6741214 20.6286891,14.5111821 C20.5875086,14.3450479 20.5463281,14.2204473 20.4639671,14.0958466 C20.4227865,14.0543131 20.381606,13.971246 20.3404255,14.0127796 C20.216884,14.0958466 20.134523,14.0543131 20.0933425,13.971246 C19.9286205,13.7635783 19.7638984,13.514377 19.6403569,13.2651757 C19.5168154,13.057508 19.1873713,12.2268371 19.1050103,12.0607029 C18.6520247,11.2300319 18.1166781,10.4824281 17.4166095,9.85942492 C16.7165408,9.23642173 15.8929307,9.02875399 14.9869595,9.15335463 C14.2868909,9.27795527 13.6691833,9.52715655 13.1750172,10.0670927 C13.1338367,10.1086262 13.0926561,10.1086262 13.0926561,10.1501597 L13.0514756,10.1501597 C12.9691146,10.1086262 13.0102951,10.0670927 13.0102951,9.98402556 C13.0102951,9.73482428 13.0926561,9.485623 13.1750172,9.23642173 C13.6691833,7.99041534 14.3692519,6.91054313 15.4811256,6.0798722 C16.1400137,5.58146965 16.8812629,5.29073482 17.704873,5.08306709 C17.9931366,5 18.3225806,5 18.6108442,5 C19.3109128,5 20.0109815,5 20.7110501,5.29073482 C21.1228552,5.45686901 21.5758408,5.58146965 21.9876458,5.74760383 C23.2642416,6.20447284 24.2937543,6.99361022 25.1997255,7.94888179 C26.2292382,9.02875399 27.1763898,10.1916933 27.9588195,11.4792332 C27.9588195,11.5207668 28,11.5207668 28,11.5623003 L27.9588195,11.6038339 C27.7940975,11.5207668 27.7117364,11.3961661 27.5881949,11.2715655 C27.0116678,10.6900958 26.4763212,10.1086262 25.8997941,9.5686901 C24.9526424,8.61341853 23.9231297,7.7827476 22.811256,7.07667732 C21.6170213,6.32907348 20.299245,6.03833866 18.8991078,6.24600639 C17.6636925,6.45367412 16.6341798,7.03514377 15.8105697,7.94888179 C15.6870281,8.07348243 15.5634866,8.23961661 15.5223061,8.32268371 C15.5223061,8.36421725 15.5634866,8.4057508 15.6046671,8.4057508 C15.7282086,8.4057508 15.8517502,8.4057508 15.9752917,8.4057508 C17.0871654,8.44728435 18.0754976,8.73801917 18.9814688,9.36102236 C20.052162,10.0670927 20.7110501,11.1054313 20.9993137,12.3514377 C20.9993137,12.4345048 21.0404942,12.5175719 21.0404942,12.5591054 C21.0404942,12.8498403 21.1228552,13.1405751 21.2052162,13.3897764 C21.3699382,13.8051118 21.4111187,14.2204473 21.4111187,14.6773163 C21.4111187,15.4664537 21.2875772,16.2555911 21.1228552,17.0031949 C20.9581332,17.3769968 20.9169526,17.7092652 20.6698696,18 L20.6698696,18 Z" id="Path"></path><path d="M2.60869565,3.80166522 C2.60869565,3.76180503 2.60869565,3.76180503 2.60869565,3.76180503 C2.60869565,3.64222448 2.46376812,3.48278373 2.35507246,3.48278373 C2.21014493,3.44292355 2.06521739,3.5625041 2.02898551,3.72194485 C1.99275362,3.8415254 2.02898551,4.04082633 2.13768116,4.12054671 L2.17391304,4.12054671 C2.35507246,4.20026708 2.60869565,4.00096615 2.60869565,3.80166522 M1.34057971,3.68208466 C1.15942029,3.72194485 0.97826087,3.72194485 0.797101449,3.8415254 C0.434782609,4.08068652 0,3.68208466 0,3.2834828 C0,3.12404206 0,2.92474113 0.0362318841,2.76530039 C0.108695652,2.4464189 0.217391304,2.1673976 0.507246377,2.04781704 C0.905797101,1.84851612 0.97826087,1.72893556 1.05072464,1.29047351 C1.05072464,1.21075314 1.08695652,1.13103277 1.15942029,1.0513124 C1.23188406,0.971592028 1.30434783,0.971592028 1.37681159,1.0513124 C1.41304348,1.09117259 1.44927536,1.17089296 1.48550725,1.25061333 C1.48550725,1.29047351 1.48550725,1.37019389 1.52173913,1.44991426 C1.55797101,1.52963463 1.5942029,1.56949482 1.66666667,1.56949482 C1.73913043,1.56949482 1.77536232,1.48977444 1.8115942,1.44991426 C1.88405797,1.25061333 1.95652174,1.09117259 1.99275362,0.891871657 C1.99275362,0.812151285 1.99275362,0.732430914 2.02898551,0.652710542 C2.06521739,0.533129985 2.17391304,0.493269799 2.2826087,0.493269799 C2.39130435,0.453409613 2.46376812,0.533129985 2.5,0.652710542 C2.53623188,0.812151285 2.53623188,0.971592028 2.60869565,1.13103277 C2.64492754,1.21075314 2.75362319,1.21075314 2.82608696,1.17089296 C2.93478261,1.0513124 3.00724638,0.931731843 3.07971014,0.7722911 C3.15217391,0.612850356 3.22463768,0.453409613 3.33333333,0.333829056 C3.44202899,0.174388313 3.58695652,0.0548077554 3.80434783,0.0149475697 C3.94927536,-0.0249126161 4.05797101,0.0149475697 4.13043478,0.134528127 C4.20289855,0.254108684 4.16666667,0.373689242 4.0942029,0.453409613 C3.98550725,0.533129985 3.91304348,0.652710542 3.84057971,0.7722911 C3.80434783,0.852011471 3.76811594,0.971592028 3.73188406,1.0513124 C3.73188406,1.09117259 3.73188406,1.17089296 3.80434783,1.17089296 C4.05797101,1.13103277 4.16666667,1.29047351 4.23913043,1.48977444 C4.3115942,1.68907537 4.45652174,1.80865593 4.60144928,1.96809667 C4.81884058,2.12753742 4.92753623,2.36669853 4.92753623,2.64571983 C4.92753623,2.80516057 4.96376812,2.92474113 5,3.08418187 C5,3.20376243 4.92753623,3.2834828 4.85507246,3.32334299 C4.60144928,3.36320318 4.34782609,3.36320318 4.05797101,3.2834828 C3.84057971,3.20376243 3.62318841,3.12404206 3.4057971,3.04432169 C3.15217391,2.96460132 2.89855072,2.96460132 2.60869565,2.96460132 C2.57246377,2.96460132 2.53623188,3.0044615 2.5,3.0044615 C2.46376812,3.08418187 2.53623188,3.12404206 2.57246377,3.12404206 C2.78985507,3.2834828 2.97101449,3.52264392 3.15217391,3.72194485 C3.29710145,3.92124578 3.36956522,4.12054671 3.4057971,4.35970782 C3.44202899,4.63872912 3.36956522,4.91775042 3.1884058,5.11705135 C3.07971014,5.23663191 2.57246377,5.67509395 2.5,6.31285692 C2.42753623,7.07020045 2.13768116,7.70796343 1.8115942,8.3457264 C1.70289855,8.54502733 1.55797101,8.74432826 1.41304348,8.94362918 C1.37681159,8.98348937 1.30434783,9.02334956 1.23188406,8.98348937 C1.01449275,8.82404863 0.869565217,8.66460788 0.869565217,8.3457264 C0.869565217,8.0667051 0.797101449,7.7876838 0.724637681,7.54852268 C0.615942029,7.2296412 0.543478261,6.91075971 0.543478261,6.55201804 C0.543478261,6.23313655 0.579710145,5.99397544 0.760869565,5.71495414 C0.905797101,5.47579302 1.08695652,5.19677172 1.15942029,4.91775042 C1.19565217,4.83803005 1.23188406,4.75830968 1.30434783,4.75830968 C1.41304348,4.75830968 1.55797101,4.75830968 1.5942029,4.59886893 C1.66666667,4.43942819 1.70289855,4.27998745 1.66666667,4.08068652 C1.5942029,4.00096615 1.5942029,3.8415254 1.55797101,3.76180503 C1.48550725,3.72194485 1.44927536,3.68208466 1.34057971,3.68208466" id="Shape"></path><path d="M19.9297308,19.0764631 C19.760086,18.7375023 19.760086,18.3561714 19.8024972,17.9748406 C19.8024972,17.72062 19.760086,17.4663994 19.6752636,17.2121788 C19.6328524,17.1274386 19.6328524,17.0850685 19.5904412,17.0003283 C19.54803,16.9155881 19.54803,16.8308479 19.5056188,16.7461077 C19.4632076,16.6189974 19.5056188,16.5766273 19.6328524,16.6189974 C19.6752636,16.6189974 19.760086,16.7037376 19.8024972,16.6189974 C19.8024972,16.5766273 19.8024972,16.5342572 19.760086,16.4918871 C19.3783852,15.8563356 18.9966844,15.178414 18.5725723,14.5428625 C18.2332827,14.0344213 17.8939931,13.48361 17.5547035,12.9751688 C17.1730026,12.3819874 16.6640682,11.9582864 16.1127226,11.5769555 C15.6886106,11.2803648 15.2644985,11.1108844 14.7555641,11.0261442 C14.1618073,10.9414041 13.6104616,11.0685143 13.1015272,11.3227349 C12.9742936,11.365105 12.9742936,11.4922153 13.059116,11.5769555 C13.271172,11.788806 13.5256392,12.0006565 13.7801064,12.1701369 C14.6283305,12.7209482 15.3493209,13.4412399 15.985489,14.2039017 C16.2399562,14.4581223 17.1305914,15.3902645 17.3850587,15.8139655 C17.5122923,16.025816 17.6395259,16.2800366 17.7667595,16.4918871 C17.8515819,16.6613675 17.9788155,16.8308479 18.1484603,16.9579582 C18.5301611,17.2121788 18.6998059,17.5511396 18.6573947,18.0172107 C18.6573947,18.144321 18.6573947,18.2714313 18.6573947,18.3985415 C18.6573947,18.610392 18.6998059,18.7798724 18.8270396,18.9493528 C18.8694508,19.034093 18.9542732,19.1612033 18.9542732,19.2459435 C19.0390956,19.9662352 19.123918,20.728897 18.9966844,21.4491887 C18.9542732,21.6186691 18.911862,21.7881495 18.9542732,22 C18.9966844,22 18.9966844,22 19.0390956,21.9576299 C19.0815068,21.9152598 19.123918,21.9152598 19.123918,21.8728897 C19.54803,21.2373382 19.8449084,20.5170465 19.972142,19.7120146 C20.0145532,19.457794 20.0145532,19.2459435 19.9297308,19.0764631" id="Path"></path><path d="M16.2156293,9.1743948 C16.6145514,8.74734215 17.0134735,8.40570002 17.5320723,8.14946843 C17.6118567,8.10676316 17.6517489,8.10676316 17.7315334,8.0640579 C17.9309944,7.97864737 18.0905633,7.97864737 18.2900243,8.0640579 C18.4894854,8.19217369 18.7288386,8.32028949 18.9282997,8.49111055 C19.6862517,9.13168953 20.3644193,9.85767905 20.8830181,10.7117844 C21.3218324,11.3950686 21.6010779,12.1637634 21.7606467,12.9751634 C21.8803234,13.5730371 21.9601078,14.1709109 22,14.7687846 C22,14.8114898 22,14.8969004 22,14.9396056 C22,14.9823109 21.9202156,15.0250162 21.8803234,14.9823109 C21.8005389,14.9396056 21.7606467,14.8541951 21.6808623,14.7687846 C21.4814012,14.4271424 21.2819402,14.0855003 21.2021558,13.7011529 C21.0026947,12.8470476 20.683557,12.0356476 20.1649583,11.3523633 C19.7261439,10.7971949 19.167653,10.4128475 18.5692698,10.0712054 C18.3299165,9.94308958 18.0506711,9.85767905 17.8113178,9.72956325 C17.3725035,9.51603692 16.9336891,9.47333166 16.4549826,9.47333166 C16.3751982,9.47333166 16.0560605,9.51603692 16.0161683,9.43062639 C15.9363838,9.51603692 16.1757371,9.25980533 16.2156293,9.1743948" id="Path"></path><path d="M18,7.20440919 C18.3908755,7.04088184 18.7817509,7 19.1291958,7 C19.5635019,7 19.9978079,7 20.3886834,7 C20.8664201,7 21.3007261,7.16352735 21.7784628,7.32705471 C21.9521853,7.40881838 22.0390465,7.49058206 21.9956159,7.65410941 C21.9521853,7.81763677 22.0390465,7.8585186 22.1693383,7.94028228 C22.4733525,8.10380963 22.6905056,8.34910066 22.864228,8.59439169 C22.9076586,8.71703721 22.9510892,8.79880089 22.9945198,8.9214464 C23.0379504,9.28938295 22.8207974,9.57555581 22.4299219,9.61643765 C22.2127689,9.65731949 21.9956159,9.61643765 21.7784628,9.61643765 C21.648171,9.61643765 21.4744486,9.61643765 21.431018,9.77996501 L21.431018,9.82084684 C21.2138649,10.0661379 21.1270037,10.0661379 20.9098507,9.77996501 C20.5624058,9.33026478 20.214961,8.88056456 19.8240855,8.51262802 C19.3897794,8.10380963 18.8686121,7.69499125 18.3474449,7.40881838 C18.217153,7.36793654 18.0868612,7.32705471 18,7.20440919" id="Path"></path><path d="M19.9836984,14.1278415 C19.9421449,13.9692672 19.9421449,13.7710494 19.9005915,13.6124751 C19.859038,13.4935444 19.6512707,12.8988909 19.6097172,12.7799602 C19.1941826,11.9870889 18.5708807,11.2735047 17.8644719,10.6788511 C17.4073838,10.2824155 16.8256353,10.0445541 16.2023334,10.0049105 C15.4128177,9.96526692 14.6648554,10.1634848 14.0415535,10.6788511 C14.0415535,10.6788511 14.0415535,10.7184947 14,10.7581383 C14.0415535,10.7581383 14.0831069,10.7581383 14.1246604,10.7581383 C14.8726227,10.6392076 15.5790315,10.7184947 16.2854404,11.0752868 C16.8256353,11.3131482 17.24117,11.6699403 17.6567046,12.066376 C18.1137926,12.5024552 18.4462203,13.0574652 18.778648,13.5728316 C19.0279688,14.0089108 19.2772895,14.4053465 19.5681638,14.8414257 C19.6097172,14.9207129 19.6512707,15 19.7759311,15 C19.859038,14.9603564 19.9005915,14.8810693 19.9005915,14.8017822 C19.9836984,14.5639208 20.0252518,14.3260594 19.9836984,14.1278415" id="Path"></path><path d="M7,29.2303552 C6.80980558,29.5026082 6.58157227,29.6387347 6.31530008,29.6841102 C6.12510566,29.7294858 5.89687236,29.7294858 5.70667794,29.6841102 C5.51648352,29.6387347 5.36432798,29.6841102 5.25021133,29.8202368 C4.86982249,30.0924898 4.48943364,30.3647429 4.1090448,30.6369959 C3.99492815,30.7277469 3.91885038,30.7731225 3.80473373,30.818498 C3.76669484,30.8638735 3.69061708,30.7731225 3.69061708,30.7277469 C3.69061708,30.5462449 3.76669484,30.4554939 3.84277261,30.3193674 C3.84277261,30.2739919 3.84277261,30.2286163 3.84277261,30.2286163 L3.76669484,30.1832408 C3.69061708,30.1832408 3.61453931,30.2286163 3.53846154,30.2739919 C3.08199493,30.5008694 2.62552832,30.6823714 2.20710059,30.9546245 C2.16906171,31 2.09298394,31 2.05494505,31 L2.01690617,31 C2.01690617,30.9546245 1.97886729,30.909249 2.01690617,30.909249 C2.09298394,30.7731225 2.20710059,30.6369959 2.28317836,30.5462449 C2.73964497,30.0924898 3.23415046,29.6841102 3.80473373,29.4118572 C4.45139476,29.1396041 4.98393914,28.595098 5.40236686,27.9598409 C5.63060017,27.6422123 5.70667794,27.2792083 5.74471682,26.8708287 C5.74471682,26.6893267 5.82079459,26.5985756 5.93491124,26.5078246 C6.08706678,26.4170736 6.20118343,26.2809471 6.35333897,26.1901961 C6.46745562,26.099445 6.58157227,26.0540695 6.69568893,26.008694 C6.88588335,25.9633185 7,26.099445 6.96196112,26.3263226 C6.88588335,26.6439511 6.88588335,26.9615797 6.69568893,27.1884573 C6.65765004,27.2338328 6.65765004,27.2792083 6.61961116,27.3245838 C6.42941674,27.9144654 6.20118343,28.504347 6.01098901,29.0488531 C5.97295013,29.1396041 6.0490279,29.2303552 6.12510566,29.2757307 C6.2772612,29.3211062 6.42941674,29.3211062 6.58157227,29.2757307 C6.73372781,29.2757307 6.84784446,29.2303552 7,29.2303552" id="Path"></path><path d="M9,31.9143876 C9.03731343,31.8287753 9.07462687,31.7859691 9.07462687,31.7431629 C9.48507463,31.4007134 9.93283582,31.1438763 10.4179104,31.0154578 C10.7537313,30.9298454 11.0522388,30.8442331 11.3880597,30.7586207 C11.4626866,30.7586207 11.5373134,30.7158145 11.5746269,30.7158145 C11.7238806,30.6302021 11.7985075,30.5445898 11.7985075,30.373365 C11.7985075,30.0309156 11.7985075,29.6884661 11.7238806,29.3460166 C11.6865672,29.0891795 11.6119403,28.8323424 11.5746269,28.5755054 C11.5373134,28.4470868 11.5746269,28.3614744 11.6492537,28.2758621 C11.7238806,28.2330559 11.7985075,28.1474435 11.8731343,28.1046373 C12.2089552,27.8906064 12.2835821,28.019025 12.3208955,28.3614744 C12.3955224,29.0463734 12.4701493,29.7312723 12.5447761,30.4161712 C12.619403,31.0154578 12.6940299,31.058264 13.2164179,31.2294887 C13.4029851,31.2722949 13.5522388,31.3151011 13.738806,31.2722949 C13.8134328,31.2722949 13.8880597,31.2722949 13.9253731,31.2722949 L14,31.3151011 C14,31.3579073 14,31.3579073 13.9626866,31.4007134 C13.7761194,31.529132 13.5522388,31.529132 13.3283582,31.5719382 C12.9925373,31.6147444 12.6567164,31.6147444 12.3208955,31.5719382 C12.1716418,31.529132 12.0597015,31.529132 11.9104478,31.5719382 C11.6865672,31.6147444 11.4253731,31.7003567 11.1641791,31.8287753 C11.0522388,31.8715815 10.9402985,31.9571938 10.8283582,32 C10.7910448,32 10.7537313,32 10.7164179,31.9571938 C10.7164179,31.9143876 10.7164179,31.9143876 10.7164179,31.8715815 C10.7164179,31.8287753 10.7164179,31.8287753 10.7537313,31.7859691 C10.7910448,31.7003567 10.9029851,31.6147444 10.8283582,31.4863258 C10.7537313,31.4007134 10.641791,31.4435196 10.5298507,31.4435196 C10.1940299,31.529132 9.85820896,31.6575505 9.52238806,31.7859691 C9.37313433,31.8287753 9.2238806,31.9143876 9,31.9143876" id="Path"></path><path d="M1.97785796,4.60877473 C1.92440234,4.8261221 1.8174911,5 1.55021299,5 C1.38984613,5 1.22947927,5 1.12256803,4.95653053 C0.801834307,4.91306105 0.427644964,4.8261221 0.106911241,4.86959158 L0,4.8261221 L0,4.73918316 C0.106911241,4.65224421 0.160366861,4.56530526 0.374189343,4.39142736 C0.641467446,4.21754947 1.92440234,3.8263242 1.92440234,4.08714104 C1.97785796,4.26101894 2.03131358,4.39142736 1.97785796,4.60877473" id="Path"></path><path d="M2.4,4 C2.2,4 2,3.8 2,3.5 C2,3.2 2.3,3 2.6,3 C2.8,3 3,3.2 3,3.5 C3,3.8 2.7,4 2.4,4" id="Path"></path></g></g></g></svg>