<svg xmlns="http://www.w3.org/2000/svg" xmlns:xlink="http://www.w3.org/1999/xlink" id="Layer_1" x="0px" y="0px" width="31px" height="46px" viewBox="0 0 31 46" style="enable-background:new 0 0 31 46;" xml:space="preserve">
<style type="text/css">
	.st0{fill:#194641;}
</style>
<g>
	<path class="st0" d="M29.3,10.9c0.1,1.1,0.3,2.3,0.4,3.5c0,2.7-0.5,5.4-1.7,7.9c-0.5,0.9-1.1,1.7-1.9,2.4c-0.7,0.6-1,1.3-1,2.2   c0,1.4,0,2.9,0,4.4c0.1,3.3,0.1,6.6,0.1,9.8c0,1,0.3,2.1,0.2,3.1c0,0.5-0.2,0.8-0.7,0.9c-0.6,0-1-0.1-0.9-0.7   c0.1-1-0.8-1.4-1.3-2.1c-2.5-3.7-5.4-7.3-8.2-10.9c-0.7-0.8-1.6-1.3-2.6-1.4c-2.5-0.3-4.9-1.3-6.9-2.8c-0.8-0.6-1.2-1.5-1.7-2.3   c-2.1-2.9-2.7-6.2-2.8-9.7c0-0.7,0.2-1.3,0.4-2c0.6-1.4,1.2-2.8,1.8-4.2C3,7.8,4.1,7.2,4.9,6.4c1.1-1.1,2.3-2.1,3.6-3   c1-0.7,2.2-1.2,3.4-1.4c2.8-0.4,5.7-0.3,8.5,0.5c1.2,0.3,2.2,1,3.3,1.5C26,4.9,27,7,28.1,8.8C28.6,9.5,28.9,10.2,29.3,10.9z    M23.6,27.9c0-0.3,0.4-0.6,0.3-1c-0.1-0.5-0.3-0.5-0.6-0.3c-0.5,0.3-0.5,0.6,0.1,0.8C23.6,27.6,23.8,27.7,23.6,27.9   c0,0.5-0.3,0.9,0.2,1.4C24,28.7,24,28.3,23.6,27.9z M27.6,18c0.8-1.6,1.1-3.4,0.8-5.2c-0.2-0.9-0.5-1.8-0.6-2.7   c0-0.4-0.1-1-0.7-1.1c-0.1,0.5,0,1.1-0.6,1.4c-0.2,0.1-0.4,0.4-0.2,0.7c0.2,0.4,0.5,0.2,0.8,0.1c0.2-0.1,0.4,0,0.6,0.2   c-0.1,0.5-0.6,0.8-1,1.2c-0.3,0.4-1,0.5-1,1.2c0.7,0.2,1.1-0.8,1.8-0.5c0,0.6-0.5,0.7-0.8,1c-0.3,0.4-0.4,0.8,0.1,1.2   c0.9,0.7,0.9,0.7,0.1,1.5c-0.2,0.2-0.5,0.3-0.4,0.5C26.7,18.1,27.4,17.5,27.6,18c-0.3,0.7-1.4,1-1.5,1.6c-0.1,0.8-0.1,1.5-0.9,2   c-0.3,0.2-0.1,0.6,0.2,0.8c0.2,0.1,0.4,0.1,0.6-0.1C27,21.7,27.9,19.3,27.6,18z M3.5,22.9c0.9,0.4,2.4,0.2,2,1.8   c0,0.1,0.3,0.3,0.4,0.5c0.8,1.1,2,1.9,3.3,2.1c0.3,0.1,0.5,0.2,0.5,0.5c0.2,1.1,1.1,1,1.9,1c-0.2-0.6-1-0.3-1.1-1   c0.9,0.1,2-0.2,2.2,1.1c0.1,0.2,0.3,0.2,0.5,0.2c0.4,0,0.7,0.2,1,0.5c1.4,1.5,2.9,3,4.2,4.7c1.2,1.4,2.1,3,2.8,4.7   c0.1,0.3,0.2,0.7,0.6,0.5c0.3-0.1,0.5-0.3,0.5-0.6c0-0.2-0.2-0.3-0.4-0.4c-0.4-0.1-0.7-0.3-0.6-0.8c0.1-0.4,0.5-0.4,0.9-0.6   c0.8-0.3,0.7,0.5,1.1,0.8c0.6-1,0.6-1.9,0.4-3c-0.9,0.6-1.4,1.5-2.8,1.7c1.2-1.3,0.2-1.7-0.5-2.2c-0.2-0.2-0.4-0.3-0.6-0.5   c-0.2-0.3-0.4-0.7,0.1-1c1-0.5,0.3-1,0-1.5c-0.2-0.3-0.8-0.1-0.8-0.6c0-0.5,0.6-0.6,0.8-0.9c0.2-0.2,0.6-0.3,0.5-0.7   c-0.3-0.1-1.2,0.4-0.9-0.2c0.4-0.8,0.6-1.5,0.8-2.3c0.1-0.4,0.3-0.8,0.1-1.2c-0.4-0.7-0.1-1.1,0.6-1.6c0.5-0.3,0.8-0.7,1.2-1   c0.1-0.1,0.3-0.4,0.2-0.4c-0.9-0.4-0.2-0.7,0-1c0.2-0.3,0.6-0.5,0.5-0.9c-0.2-0.6-0.8,0.1-1.1-0.4c0.2-0.3,0.4-0.6,0.5-0.9   c0.1-0.6-0.5-1-0.7-1.5c-0.4-0.6,1-0.9,0.4-1.6c-0.1-0.1-0.1-0.2-0.1-0.3c-0.1-0.3-0.4-0.6-0.2-1c1.5-0.1,1.8-0.5,1-1.6   c-0.3-0.5,0-0.6,0.2-0.9c0.5-0.4,0.7-0.9,0.1-1.4c-0.6,0.1-0.7,0.8-1.5,0.7c0.3-1.1,1.6-1.3,1.8-2.4c-0.8-0.3-1.1,0.8-1.9,0.6   c-0.2-1.2-0.2-1.2-1.3-0.8c-0.4,0.2-0.6,0-0.8-0.3c-0.3-0.6-0.7-0.7-1.2-0.1c-0.3,0.4-0.6,0.4-1-0.1c-0.5-0.9-0.6-0.8-1.4-0.1   c-0.3,0.2-0.4,0.5-0.8,0.4c-0.1-0.5,0.4-0.7,0.7-1c0.6-0.6-0.2-0.9-0.4-1.3c-0.2-0.3-0.4,0-0.7,0.1C14,7,13.3,7.8,12.4,7.2   c-0.1-0.1-0.5-0.2-0.6-0.1c-0.6,0.8-1.3,0.3-2.1,0.3C9,7.5,8,6.7,7.9,8.2c0,0.1-0.3,0.2-0.6,0.3c-1.8,0.4-2.3,2-3.1,3.3   c-0.3,0.4-1.3,0.8-0.8,1.7c0.1,0.2-0.4,0.2-0.6,0.2c-0.5,0-0.9,0.1-1.1,0.5c-0.3,0.9-0.7,1.9-0.1,2.9c0.3-0.3,0.4-0.5,0.6-0.6   c0.5-0.2,1,0.1,0.8,0.5c-0.4,0.9,0.2,1.9-1.1,2.5c0.4,0.1,0.5,0.2,0.6,0.2C3.4,19.9,4.1,20,3.6,21c-0.1,0.1,0,0.3,0.1,0.4   C4.4,21.9,3.7,22.4,3.5,22.9z M22,25.6c0.9-0.8,1.7-1.6,2.6-2.4c0.1-0.1,0-0.3,0-0.4c-0.2-0.3-0.5-0.3-0.7-0.1   c-0.7,0.5-1.4,1-2,1.6c-0.3,0.2-0.5,0.6-0.3,1C21.5,25.5,21.7,25.6,22,25.6L22,25.6z M24,42.3c0.2-1.1,0.1-2.3-0.2-3.4   C23.3,40.1,22.9,41.1,24,42.3z M23.7,33.8c0.5-1.3,0.2-1.9-0.7-2.1c-0.3-0.1-0.5,0.1-0.7,0.3c-0.1,0.2-0.2,0.4,0,0.5   c0.2,0.2,0.3,0.2,0.5,0c0.8-0.5,0.8,0,0.6,0.5C23.4,33.3,23.4,33.5,23.7,33.8L23.7,33.8z M23.1,5.3C23.2,6,24,6.2,24.2,6.7   c0.1,0.2,0.3,0.2,0.5,0.1c0.2-0.2,0.2-0.4,0.1-0.6C24.5,5.6,24,5.2,23.1,5.3z M25.1,17c-0.1-0.4-0.4-0.6-0.7-0.5   C24,16.6,23.8,17,24,17.4c0.1,0.3,0.4,0.6,0.8,0.4C25.3,17.7,25.2,17.3,25.1,17z M3.4,11.2c0.6-0.4,0.9-1.1,1-1.8   C3.2,9.6,3.4,10.4,3.4,11.2z M25.5,12.6c0.1-0.2,0.4-0.4,0.2-0.8c-0.1-0.3-0.4-0.4-0.6-0.2c-0.3,0.2-0.4,0.5-0.3,0.8   C24.8,12.7,25.1,12.8,25.5,12.6L25.5,12.6z M21.4,31.5l0.4-0.4c0.3-0.3,0.1-0.7-0.1-0.9c-0.2-0.1-0.4-0.2-0.6-0.1   c-0.4,0.3-0.3,0.6-0.1,1C21.2,31.2,21.3,31.3,21.4,31.5L21.4,31.5z M23.1,16.1c0.1,0.2,0.3,0.3,0.5,0.2c0.4-0.2,0.6-0.6,0.4-1   c-0.1-0.2-0.4-0.2-0.5,0C23.2,15.5,22.9,15.7,23.1,16.1z M25.4,16.3c0.1,0.3,0.3,0.5,0.5,0.4c0.3-0.1,0.3-0.4,0.2-0.7   c-0.1-0.3-0.3-0.5-0.5-0.5C25.2,15.6,25.3,16,25.4,16.3L25.4,16.3z M24.3,13.2c-0.2-0.1-0.3-0.4-0.6-0.3c-0.3,0.1-0.3,0.4-0.2,0.7   s0.3,0.5,0.6,0.2C24.4,13.7,24.5,13.5,24.3,13.2L24.3,13.2z M22.3,7.9C22.1,8,22,8.2,22.1,8.4c0.1,0.2,0.2,0.4,0.4,0.4   c0.3,0,0.4-0.2,0.4-0.4C22.8,8.1,22.6,7.9,22.3,7.9L22.3,7.9z M21.1,6.6c-0.3,0.2-0.3,0.5-0.2,0.7c0.1,0.2,0.3,0.3,0.5,0.2   c0.3-0.1,0.3-0.4,0.2-0.7C21.5,6.6,21.3,6.5,21.1,6.6z M24.3,11.1c0.3-0.1,0.4-0.3,0.4-0.6c0-0.2-0.3-0.4-0.5-0.3   c-0.2,0.1-0.3,0.3-0.3,0.5C23.9,10.9,24.1,11.1,24.3,11.1L24.3,11.1z M22.3,4.4c-0.2-0.2-0.3-0.3-0.5-0.2c-0.3,0.1-0.4,0.3-0.4,0.6   C21.4,5,21.6,5,21.8,5C22.1,4.9,22.2,4.7,22.3,4.4L22.3,4.4z M23.6,18.3c-0.1-0.2-0.2-0.4-0.6-0.3c-0.1,0-0.2,0.2-0.1,0.4   c0.1,0.2,0.2,0.5,0.5,0.5C23.6,18.8,23.7,18.6,23.6,18.3z M20.5,3.7c-0.7,0-1.1,0.3-1.3,1C19.9,4.5,20.2,4.2,20.5,3.7L20.5,3.7z    M20.2,8.2c0.3-0.1,0.3-0.3,0.2-0.5c-0.1-0.1-0.2-0.2-0.4-0.1c-0.2,0.1-0.2,0.3-0.1,0.5C19.9,8.2,20,8.3,20.2,8.2z M17.8,7.3   c-0.2,0.2-0.2,0.4,0,0.5C17.9,8,18,8.1,18.2,8c0.2-0.2,0.2-0.4,0-0.5C18.2,7.3,18,7.2,17.8,7.3L17.8,7.3z M13.3,5.6   c0.2-0.1,0.4-0.2,0.4-0.5c0-0.2-0.2-0.2-0.3-0.1C13.2,5,12.9,5.1,13,5.4C13,5.6,13.1,5.6,13.3,5.6z M22.5,34.2   c-0.1,0-0.3,0.2-0.3,0.3c0.1,0.2,0.2,0.2,0.4,0.2c0.2-0.1,0.2-0.2,0.2-0.3C22.8,34.2,22.7,34.2,22.5,34.2z M24.1,19.4   c-0.2,0.1-0.2,0.3-0.2,0.5c0.1,0.2,0.2,0.2,0.4,0.2c0.2-0.1,0.3-0.3,0.2-0.5C24.4,19.4,24.3,19.3,24.1,19.4z M23.2,29.5   c-0.1-0.2-0.2-0.3-0.5-0.3c-0.2,0.1-0.2,0.2-0.1,0.4c0.1,0.2,0.2,0.3,0.5,0.3C23.2,29.8,23.2,29.7,23.2,29.5z M25.2,18.8   c0.1,0.1,0.2,0.2,0.4,0.1c0.2-0.2,0.3-0.4,0.1-0.6c-0.1-0.1-0.3-0.1-0.4,0C25.2,18.4,25.1,18.6,25.2,18.8z M25.1,14.6   c0-0.2-0.1-0.3-0.3-0.2c-0.2,0-0.3,0.2-0.3,0.4c0,0.2,0.1,0.3,0.3,0.3C25,15,25.1,14.8,25.1,14.6z M19.3,6.5   c-0.1-0.1-0.3-0.2-0.4-0.1c-0.2,0.1-0.3,0.3-0.2,0.5c0,0.1,0.3,0.2,0.4,0.2C19.3,6.9,19.4,6.7,19.3,6.5z M17.4,4.4   c-0.1,0.1-0.3,0.2-0.2,0.4c0.1,0.1,0.2,0.1,0.3,0l0.2-0.4C17.6,4.4,17.5,4.4,17.4,4.4z"></path>
	<path class="st0" d="M3.5,14.9c0.1,0.2,0,0.3-0.2,0.4c-0.3,0-0.6,0.1-0.7-0.3c-0.1-0.2,0.1-0.3,0.2-0.4C3.1,14.4,3.4,14.6,3.5,14.9   z"></path>
</g>
</svg>