<svg xmlns="http://www.w3.org/2000/svg" xmlns:xlink="http://www.w3.org/1999/xlink" id="Layer_1" x="0px" y="0px" width="36.1px" height="47.2px" viewBox="0 0 36.1 47.2" style="enable-background:new 0 0 36.1 47.2;" xml:space="preserve">
<style type="text/css">
	.st0{fill:#194641;}
</style>
<g>
	<path class="st0" d="M33.4,22.1c-0.7-0.9-1.5-1.7-2.4-2.4c-0.9-0.7-2-1.2-2.9-1.9c-0.3-0.2-0.7-0.4-1.1-0.5c-0.5-0.1-1-0.2-1.5-0.5   c-1.2-0.4-2.4-0.8-3.6-1.2c-1.2-0.4-2.4-0.6-3.7-0.7c-1.2-0.1-2.2-1.2-2-2.5c0,0,0-0.1,0-0.1c0.1-0.7,0.1-1.4,0.1-2.1   c0-0.4-0.1-0.9,0.3-1.3c0.1-0.1,0.1-0.3,0.1-0.4c-0.3-1-0.2-2-0.6-3c-0.3-0.7-0.4-1.5-0.8-2.2C15,3,14.9,3,14.6,3.5   c-0.3,0.4-0.5,0.9-0.6,1.4c-0.1,0.4-0.2,0.8-0.3,1.2c-0.2-0.9-0.7-1.7-1.3-2.3c-0.6-0.6-0.6-0.6-0.9,0.3c-0.1-0.1-0.2-0.2-0.2-0.3   c-0.5-1-0.9-2.1-1.4-3.1c-0.1-0.2,0-1-0.7-0.3c0,0-0.1-0.1-0.1-0.1C8.9,0,8.8,0.2,8.8,0.3c0,1.8-0.1,3.7,0.7,5.3   c0.1,0.2,0.1,0.4-0.1,0.5C9.1,6,9.1,5.5,8.5,5.4c0.4,0.7,0.8,1.3,0.8,2c0,0.1,0.1,0.1,0.1,0.2c0.2,0.3,0.3,0.6,0.6,0.8   c0.3,0.3,0.4,0.6,0.5,1c0,1.2,0.1,1.8,0.6,2.6c0.2,0.2,0.3,0.5,0.4,0.7c0.3,0.4,0.6,0.9,0.8,1.3c-0.6-1.3-0.8-2.8-1.6-4.1   c0.4,0.8,1.1,1.5,1.6,2.3c0.3,0.5,0.5,1,0.7,1.5c0.4,0.8,0.3,1.1-0.6,1.5c-0.3,0.2-0.8,0.2-1.1,0.4c-0.2,0.1-0.3-0.1-0.4-0.2   c-0.1-0.2-0.3-0.3-0.4-0.5c-0.1-0.2-0.2-0.4-0.3-0.6c-0.2-0.3,0.4-0.2,0.2-0.4c-0.4-0.5-0.4-1.2-0.6-1.8c-0.1,0.1,0,0.4-0.1,0.5   c-1-0.8-1.8-3.7-1.4-5.6C8.4,7.4,8.6,7.7,8.7,8C8.9,8.7,9,9.4,9.4,10.1c0.2-0.3,0-0.5,0-0.7C9.1,8.1,8.5,6.9,8.2,5.6   c0-0.1-0.1-0.3-0.2-0.3C7.6,5.4,7.6,5.2,7.5,5C6.7,4,5.9,2.9,5.1,1.8C4.9,1.5,4.6,1.3,4.2,1.3C3.8,2.5,4,3.7,4.2,4.9   C4,4.6,3.8,4.4,3.5,4.2C3.4,4,3.2,3.9,3,3.7C2.7,3.6,2.5,3.5,2.2,3.3C2.2,3.3,2.1,3.2,2,3.3L1.9,3c0,0.1,0,0.2,0,0.3l0,0l0,0.6   c0,0,0,0.1,0,0.1c0,0.1,0,0.3,0,0.4c0.2,0.3,0.3,0.7,0.3,1.1c0.1,0.5,0.3,1,0.4,1.5c0,0.2,0.2,0.3,0,0.5C2.4,7.9,2.6,8.1,2.7,8.4   c0.5,0.9,1,1.7,1.4,2.6c-0.5-0.2-0.9-0.6-1.3-1C2.7,9.8,2.4,9.6,2.2,9.5C2.1,9.5,2.1,9.4,2,9.4L1.4,9C1,8.6,0.6,8.3,0,8.8l1.9,2.8   c0.9,1.2,1.9,2.4,3,3.4c0.5,0.5,0.9,1.2,1.6,1.6c0.4,0.1,0.6,0.5,0.5,0.9c0,0.3,0.1,0.6,0.2,0.8c0.4,0.8,0.6,1.6,0.5,2.5   c0,0.5-0.1,1-0.3,1.5c-0.3,0.5-0.2,1-0.3,1.5c-0.2,0.7-0.3,1.4-0.4,2.1c-0.3,1.3-0.7,2.6-0.9,4c-0.2,1.1-0.3,2.3-0.2,3.4   c0.1,0.7,0.3,1.3,0.4,2c0.2,1.3,0.7,2.5,1.4,3.5c0.3,0.4,0.6,0.9,1,1.3c0.8,1.2,1.9,2.3,3.2,2.9c0.8,0.4,1.6,0.7,2.4,1   c0.5,0.2,1,0.3,1.5,0.4c0.8,0,1.6,0.1,2.4,0.3c0.6,0.2,1.2,0.2,1.8,0.2c0.3,0,0.6-0.2,0.9-0.2c1,0,2-0.1,2.9-0.4   c0.2-0.1,0.4-0.2,0.5,0.2c0,0.1,0.1,0,0.1,0c0.4-0.4,0.7-0.1,1,0.1c0.1,0.1,0.2,0.4,0.4,0.5c0.5,0.2,0.8,0.7,0.9,1.2   c0.1,0.4,0.7,0.7,1.2,0.5l-0.3-0.2c-0.2-0.1-0.4-0.2-0.3-0.5c0.1-0.2,0.3-0.2,0.5-0.2c0.3-0.1,0.4,0,0.4,0.3c0,0.2,0.1,0.4,0.1,0.6   c0,0.1,0.3,0.2,0.3,0.2c0.1-0.5,0.5,0,0.7-0.2c-0.1-0.3-0.5-0.4-0.5-0.7c-0.1-0.8-0.2-1.5-0.5-2.3c0.5,0.3,0.5,0.7,0.6,1.1   c0.1,0.3,0.1,0.5,0.3,0.7c0.1,0.1,0.3,0,0.4-0.1c0.1-0.1,0-0.2-0.1-0.2c-0.2,0-0.3-0.2-0.3-0.4c0-0.1,0-0.2,0.1-0.3   c0.1-0.1,0.2-0.1,0.3-0.1c0.1,0,0.2,0.1,0.3,0.2c0,0.1,0.1,0.1,0.1,0.2c0.1,0.1,0.2,0.1,0.2,0c0.2-0.5,0.6-0.3,0.9-0.4   c0.1,0.2,0.2,0.4,0.4,0.5c0.3,0,0-0.4,0.3-0.4c0.2-0.1,0.5,0.1,0.6-0.2c-0.5-0.9-0.8-1.9-1-3c0.2,0.2,0.2,0.5,0.3,0.8   c0.1,0.3,0.2,0.5,0.4,0.7c0.1,0.1,0.2,0.2,0.4,0.2c0.2,0,0.3-0.1,0.4-0.2c-0.4-1-0.4-2-0.5-3.2c-0.2,0.3-0.3,0.7-0.2,1.1   c0.2,0.3,0.1,0.7-0.2,0.9c-0.3-0.3-0.1-0.6-0.2-0.9c-0.2-0.5-0.2-0.5,0.1-0.8c0.2-0.2,0.4-0.5,0.6-0.7c0.7-1.1,1.2-2.3,2.1-3.2   c0.1-0.1,0.1-0.1,0.2-0.2c0.5-1.1,0.9-2.2,1.3-3.3c0-0.1,0-0.2,0-0.3c0-0.5,0-1,0.2-1.5c0.1-0.4,0.2-0.8,0.1-1.2   c-0.1-0.7-0.2-1.4-0.3-2.1C35.3,25.6,34.5,23.8,33.4,22.1L33.4,22.1z M19.2,15.6c-0.3,0.1-0.5,0.4-0.6,0.6   c-0.2,0.2-0.3,0.2-0.5,0.1c-0.2-0.1-0.3-0.2-0.1-0.5C18.3,15.2,18.5,15.1,19.2,15.6z M24.6,20.5c0.2-0.1,0.4,0,0.5,0.2   c0.1,0,0.1,0.1,0.1,0.2c-0.1,0.3-0.4,0.5-0.6,0.7c-0.1,0.1-0.1,0.1-0.2,0.1c-0.1,0-0.2,0-0.2-0.1l-1.1-1c-0.1-0.1-0.2-0.3,0-0.4   c0.1-0.1,0.2-0.4,0.5-0.3c0.3,0.1,0.5,0.3,0.7,0.4C24.2,20.5,24.3,20.6,24.6,20.5L24.6,20.5z M31.7,27.7c0.1,0.2,0.2,0.4,0,0.6   c-0.4,0.3-0.8,0.6-1.2,0.9c-0.3,0.2-0.4,0-0.5-0.3c-0.1,0.3,0.2,0.7-0.3,0.8c-0.2,0.1-0.4-0.4-0.4-0.8c0-0.4,0.1-0.4,0.6-0.3   c-0.1-0.3,0.1-0.5,0.4-0.7c0.3-0.2,0.6-0.4,0.9-0.6C31.6,27.2,31.6,27.5,31.7,27.7L31.7,27.7z M25.7,22.3c0.4-0.5,1-0.7,1.6-0.4   l0,0c-0.2,0.6-0.7,0.8-1.1,1.1c-0.2,0.2-0.3-0.1-0.4-0.2C25.6,22.7,25.5,22.5,25.7,22.3z M24.8,21.9c-0.1-0.2,0.1-0.3,0.2-0.4   c0.6-0.6,0.6-0.5,1.1-0.2c0.2,0.1,0.3,0.3,0,0.5l-0.7,0.5C25.2,22.3,24.9,22.1,24.8,21.9L24.8,21.9z M27,21.5   c0.2-0.1,0.3,0.1,0.5,0.1c0.1,0,0.2,0.1,0.1,0.2c-0.1,0.1-0.2,0.1-0.3,0.1C27.2,21.8,27,21.7,27,21.5L27,21.5z M26.4,23.2   c0.4-0.4,0.9-0.8,1.4-1.1c0.1-0.1,0.3-0.1,0.5,0c0.2,0.1,0.1,0.3,0,0.4c-0.4,0.4-0.8,0.9-1.2,1.3c-0.1,0.1-0.3,0.3-0.5,0.2   c-0.1-0.1-0.2-0.2-0.2-0.4C26.3,23.5,26.3,23.4,26.4,23.2L26.4,23.2z M26.9,24.4c0.2-0.4,0.6-0.7,1-0.9c0.2,0.2,0.5,0.5,0.3,0.8   c-0.2,0.3-0.5,0.6-0.8,0.8c-0.1,0-0.1,0.1-0.2,0.1c-0.1,0-0.1-0.1-0.2-0.1C27,24.8,26.8,24.6,26.9,24.4L26.9,24.4z M28.8,27.3   c-0.3,0.1-0.3-0.2-0.5-0.3c-0.1-0.1-0.1-0.2-0.2-0.3c0-0.3,0.2-0.6,0.5-0.7c0.3,0,0.3,0.2,0.3,0.3l0.1,0.3c0.1,0.1,0,0.3,0,0.4   C29,27.1,28.9,27.2,28.8,27.3L28.8,27.3z M29.4,28.3c-0.3,0.2-0.3,0-0.4-0.2c-0.2-0.4-0.2-0.6,0.1-0.7c0.2-0.1,0.3,0,0.4,0.2   C29.6,27.8,29.8,28.1,29.4,28.3z M28.6,25.5c-0.2,0.2-0.4,0.4-0.6,0.5c-0.6-0.6-0.6-0.6,0-1.1c0.1-0.1,0.3-0.3,0.5-0.2   C28.7,25,28.7,25.3,28.6,25.5z M30,24.8c0.1,0,0.1,0,0.1,0c0.7,0.9,0.6,1.1-0.7,1.7C28.9,25.4,28.9,25.8,30,24.8L30,24.8z M31,27.1   c-0.3,0.4-0.7,0.6-1.2,0.8c-0.3-0.9-0.3-1,0.6-1.5c0.2-0.1,0.3-0.3,0.5,0C31.1,26.5,31.4,26.8,31,27.1z M29.7,24.6   c-0.1,0.1-0.1,0.2-0.2,0.2c-0.2,0.1-0.3,0.2-0.5,0.4c-0.3-0.8-0.3-0.8,0.2-1.2c0.2-0.1,0.4-0.4,0.5-0.2   C29.9,24,29.9,24.4,29.7,24.6z M29.3,23.2c0.1,0.2,0,0.4-0.3,0.5c-0.2,0.1-0.3,0.3-0.5,0.3c-0.2-0.1-0.1-0.3-0.3-0.5   c-0.2-0.2-0.2-0.4,0-0.6c0.2-0.2,0.3-0.4,0.6-0.4C29.3,22.6,29.2,23,29.3,23.2z M28.2,21.5c-0.2,0.1-0.4,0-0.6-0.1   c-0.1-0.1-0.2-0.2-0.1-0.3c0.1-0.1,0.2-0.1,0.4-0.1C28,21.1,28.1,21.3,28.2,21.5z M27.4,20.6c0,0.1-0.2,0.3-0.3,0.2   c-0.3-0.1-0.5-0.3-0.7-0.4c0.1-0.2,0.2-0.5,0.5-0.4C27.1,20.1,27.3,20.3,27.4,20.6L27.4,20.6z M26.3,19.9c-0.2,0.3-0.4,0.5-0.8,0.4   L25,20.1c0.1-0.3,0.4-0.4,0.5-0.7c-0.1,0-0.2,0-0.3,0.1c-0.2,0.1-0.3,0.4-0.5,0.4c-0.2-0.1-0.5-0.2-0.6-0.4c-0.1-0.1-0.1-0.3,0-0.4   c0.2-0.3,0.4-0.6,0.7-0.8c0.5,0.3,1,0.7,1.4,1.1C26.3,19.4,26.5,19.6,26.3,19.9z M22.9,19.8c-0.1,0.1-0.2,0.2-0.3,0.1   c-0.2-0.1-0.4-0.2-0.4-0.5c0.2-0.1,0.4,0.1,0.6,0.1C23,19.5,23,19.6,22.9,19.8z M21.4,18.2c0,0,0.1-0.2,0.1-0.2   c0.3,0.1,0.5,0.3,0.7,0.6C21.8,18.5,21.5,18.5,21.4,18.2z M23,20.7c0.2,0.2,0.5,0.4,0.8,0.7c0.4,0.4,0.4,0.4,0,0.9   c0.3,0,0.4-0.3,0.7-0.2c0.2,0.1,0.5,0.3,0.4,0.4c-0.1,0.3-0.4,0.6-0.7,0.6c-0.1,0-0.1,0-0.2,0c-0.2-0.2-0.2-0.5-0.2-0.8   c-0.1,0.1-0.3,0.2-0.4,0.1c-0.4-0.4-0.8-0.7-1.1-1.1c-0.2-0.3,0.1-0.4,0.2-0.6C22.7,20.4,22.9,20.5,23,20.7z M22.3,20.6   c-0.2,0.2-0.4,0.2-0.6,0c-0.4-0.3-0.4-0.3,0.2-0.9C22.5,20.2,22.6,20.3,22.3,20.6L22.3,20.6z M21.3,19.9c-0.2,0.2-0.3,0.1-0.5-0.1   c-0.1-0.1-0.2-0.2-0.3-0.3c-0.1-0.2,0.1-0.4,0.2-0.6c0.2-0.2,0.3,0,0.4,0.1c0.1,0.1,0.2,0.2,0.3,0.2C21.7,19.6,21.5,19.8,21.3,19.9   z M20.2,19.1c-0.2,0.1-0.4,0-0.5-0.2c-0.2-0.3,0.1-0.4,0.3-0.6c0.2-0.1,0.4,0,0.5,0.1C20.6,18.7,20.4,19,20.2,19.1z M19.5,18.5   c-0.2,0.1-0.4,0-0.5-0.2c0,0,0-0.1,0-0.2c0-0.1,0.1-0.1,0.1-0.1c0.2-0.1,0.4,0,0.5,0.1c0,0.1,0.1,0.2,0,0.2   C19.6,18.4,19.6,18.5,19.5,18.5L19.5,18.5z M18.4,17c0.4,0,0.5,0.2,0.8,0.4C18.7,17.4,18.5,17.4,18.4,17z M15.8,12.7   c0,0.1,0,0.2,0,0.2c0,0.1-0.1,0.2-0.2,0.3c-0.2-0.1-0.2-0.4-0.4-0.5c0.1-0.1,0.1-0.3,0.3-0.3S15.8,12.5,15.8,12.7z M15.2,12.6   c-0.1,0-0.2-0.1-0.2-0.2c-0.2-0.7-0.3-1.4-0.4-2.2C14.9,11,15.1,11.8,15.2,12.6z M15.6,8.2l-0.1-0.6C15.8,7.8,15.7,8,15.6,8.2z    M14.9,4.2c0.5,0.3,0.5,0.3,0.6,1L14.9,4.2L14.9,4.2z M14.2,5.6c0-0.4,0.5-0.4,0.6-0.9c0.5,0.7,0.4,1.4,0.6,2.1   C15,7.5,15.3,8.3,15.4,9c0,0.8,0.1,1.7,0.1,2.5c0,0,0,0.1-0.1,0.2c-0.2-0.5-0.3-1-0.3-1.5c0-0.6-0.3-1.2-0.3-1.8   c0-0.1,0-0.2-0.1-0.2C13.6,7.5,14.2,6.5,14.2,5.6z M9.5,0.8C9.6,0.8,9.7,0.9,9.7,1l0.1,0.3C9.6,1.1,9.5,1,9.5,0.8z M11.9,3.8   c0.2-0.1,0.3,0,0.5,0c-0.3,0.2-0.1,0.3,0,0.5c0.4,0.6,0.7,1.3,1,2c0.2,0.5,0.4,1,0.5,1.6c0.3,1.8,0.8,3.5,1,5.3   c0,0.2,0.1,0.3,0,0.5c-0.1,0.2-0.2,0.4-0.5,0.4c-0.3,0-0.1-0.3-0.2-0.4c-0.4-0.5-0.7-1.1-0.9-1.7c-0.4-0.6-0.5-1.3-0.4-2   c0-0.1,0-0.3-0.1-0.4c0.1-0.7,0.1-1.4-0.1-2.1c-0.1-0.5-0.2-1.1-0.4-1.6C12,5.3,12.1,4.5,11.9,3.8z M12.4,9.8   c-0.4-1.2-0.8-2.4-0.5-3.7L12,6c0.3,0.7,0.4,1.4,0.5,2.1c0,0.5,0.1,1,0.2,1.5C12.6,9.7,12.4,9.9,12.4,9.8L12.4,9.8z M10.1,6.8   C9.6,5.1,9.4,3.3,9.2,1.6c0-0.2,0-0.3,0.1-0.5c0.7,1,1.5,2,1.5,3.3c0,0.3,0,0.7,0.5,0.5c0.1,0,0.1,0.1,0.1,0.2   c0.1,0.4,0.1,0.8,0,1.2c-0.2,0.7-0.2,1.4-0.1,2.1c0,0.1,0.1,0.2-0.1,0.4C10.9,8.2,10.3,7.6,10.1,6.8z M13.3,13.5   c-0.8-1-1.1-2.3-1.7-3.4C12.4,11.1,13,12.2,13.3,13.5z M9.4,7.1c0.7,0.5,1.1,1.2,1.1,2L9.4,7.1z M7.7,7.5C7.7,7,7.4,6.6,7.8,6.2   C8,6.6,7.9,7.1,7.7,7.5z M4.3,3C5,4.5,5.8,5.9,6.7,7.2C6.5,6.3,6.2,5.5,5.6,4.7c-0.5-0.6-0.9-1.4-1-2.2C4.5,2.3,4.5,2,4.6,1.8   C5.3,2.6,6,3.5,6.6,4.4C7,5.1,7.3,5.9,7.3,6.7c0.1,1.2,0.3,2.4,0.7,3.5c0.1,0.3,0.2,0.6,0.1,0.8c-1-1.7-2-3.3-3-5   C4.6,5.1,4.3,4.1,4.3,3L4.3,3z M5.2,7.1c0.3,0.2,0.4,0.5,0.5,0.8L5.2,7.1z M6.5,9c0.3,0.6,1.1,1,1.2,1.6c0.1,0.8,0.8,1.1,1,1.7   c0.2,0.6,0.4,1.3,0.7,1.9c-1-1.1-1.8-2.4-2.5-3.7C6.9,10,6.4,9.6,6.5,9L6.5,9z M4.7,11.2c-0.6-1.3-1-2.6-1.5-3.9   C2.8,6.5,2.6,5.6,2.4,4.8c0-0.2,0-0.4,0.1-0.6C2.4,4.2,2.3,4.1,2.2,3.9c0.5,0.3,1,0.6,1.3,1C3.6,5,3.7,5.2,3.8,5.3   C4.5,6.1,5,6.9,4.9,8.1c0,0.1,0.1,0.3,0.1,0.4l2.1,4.1c0.1,0.3,0.3,0.5,0.6,0.7c-0.6-1.6-1.6-3-2.2-4.6c0.7,1.1,1.3,2.3,2,3.5   c0.8,1.4,1.7,2.6,2.8,3.8c0.1,0.1,0.3,0.2,0.1,0.4c-0.1,0.2-0.3,0-0.5,0c-0.3-0.1-0.6-0.3-0.9-0.3c-0.4,0-0.9-0.2-1.2-0.4   c-0.4-0.2-0.7-0.5-0.8-0.9c0.4,0,0.5,0.3,0.8,0.3c-0.1-0.3-0.3-0.5-0.5-0.6C6.2,13.6,5.2,12.5,4.7,11.2L4.7,11.2z M4.5,14   c-1.1-1.1-2.1-2.3-3-3.6C1.2,10.2,1,9.8,1,9.5c0.7,0.2,1.4,0.5,2,1c0.5,0.4,1,0.8,1.5,1.2c0.3,0.1,0.5,0.5,0.4,0.8   C4.8,13,5,13.6,5.5,14C6,14.4,6.4,14.7,7,15c0.3,0.1,0.5,0.6,0.7,0.9c0.1,0.1,0.1,0.1,0.1,0.2c0,0.1-0.1,0.1-0.1,0.2   c-0.1,0-0.1,0.1-0.2,0.1c-0.1,0-0.1,0-0.2-0.1l-0.7-0.6l-0.9-1c-0.2-0.2-0.3-0.4-0.7-0.3C4.8,14.4,4.6,14.1,4.5,14z M5.7,15.3   c0.4,0.2,0.7,0.5,0.9,0.9C6.2,16,5.9,15.7,5.7,15.3z M8,38.7c-1.1-1.7-1.8-3.7-2-5.7l0-0.6c0-0.4,0.1-0.7,0.6-0.8   c0.1,0,0.1-0.1,0.2-0.1c-0.2-0.1-0.4,0-0.7,0c-0.1-0.4-0.1-0.7,0-1.1c0.5-2.4,1-4.7,1.7-7c0-0.1,0-0.3,0.3-0.3   c-0.2,0.8-0.4,1.5-0.5,2.3c-0.3,1.3-0.4,2.7-0.4,4.1c0,0.7,0,1.3-0.1,2c-0.1,0.9,0,1.9,0.3,2.8c0.2,0.7,0.2,0.7-0.6,0.9   c0,0-0.1,0.1-0.1,0.1c0,0.2,0.2,0.1,0.4,0.1c0.4-0.1,0.7,0.1,0.8,0.5C8,36.4,8.1,37,8.3,37.6c-0.2,0.2-0.4,0-0.5,0.1   c0,0.1,0,0.1,0,0.1c1.2,0.2,1.8,1.2,2.6,1.9C9.4,39.7,8.5,39.6,8,38.7z M12.2,41.3c-0.9-0.2-2-0.2-2.6-1.1   C10.5,40.1,11.5,40.5,12.2,41.3z M12,42.8c-0.5-0.3-1-0.8-1.4-1.3l2.7,1.5C12.9,43.2,12.4,43.1,12,42.8z M13.8,43.5   c1.3-0.3,2.3,0.5,3.4,0.7C16.1,43.9,14.8,43.9,13.8,43.5z M25.3,44.3c0,0.1,0.1,0.2-0.1,0.2c-0.1,0-0.2,0-0.2-0.1   c0-0.1,0-0.1,0.1-0.2c0,0,0.1,0,0.1,0C25.3,44.2,25.3,44.2,25.3,44.3L25.3,44.3z M24.4,43.9c0.2-0.4,0.7-0.6,1.1-0.4   C25.2,43.7,24.8,43.8,24.4,43.9z M25.9,44.1c0.1,0.1,0.1,0.1,0,0.2c-0.1,0-0.2-0.1-0.2-0.2c0,0,0-0.1,0-0.1c0,0,0.1-0.1,0.1-0.1   C25.9,43.9,25.8,44.1,25.9,44.1z M26.1,44.9c-0.1,0-0.2,0-0.3-0.1c0,0,0.1-0.1,0.1-0.2c0.1,0,0.2,0,0.3,0.1   C26.2,44.8,26.2,44.9,26.1,44.9z M27,45.8c-0.3-0.2-0.3-0.6-0.3-1C27.3,45,27.3,45,27,45.8z M28.1,45.7c-0.4-0.7-1-1.4-1.7-1.8   C27.6,43.7,28.3,44.4,28.1,45.7L28.1,45.7z M26.6,42.6c0.3,0.2,0.5,0.3,0.4,0.7C26.7,43.1,26.8,42.9,26.6,42.6L26.6,42.6z    M27.7,43.2c-0.3-0.1-0.5-0.3-0.6-0.6C27.5,42.6,27.8,42.9,27.7,43.2L27.7,43.2z M28.8,43.7c0,0.3,0.2,0.5,0.3,0.8   c-0.3,0-0.6-0.3-0.7-0.6c0-0.1,0.1-0.3,0.2-0.3C28.8,43.4,28.8,43.6,28.8,43.7L28.8,43.7z M27.5,42.1c-0.3,0-0.4-0.2-0.5-0.5   c0.6,0,1.1-0.6,1.8-0.2c-0.4,0.1-0.8,0.2-0.7,0.7C27.9,42,27.7,42,27.5,42.1z M28.1,42.1c0.4-0.2,0.6,0.1,0.9,0.3   C28.4,42.8,28.5,41.9,28.1,42.1z M29.7,44.4c-0.3-0.2-0.5-0.3-0.5-0.7c0-0.3-0.2-0.5-0.4-0.8C29.8,42.9,29.8,42.9,29.7,44.4z    M30.8,44.6c-0.7-0.3-0.7-0.3-0.6-1.2C30.5,43.8,30.7,44.2,30.8,44.6z M31.1,44.2c-0.3-0.9-1.1-1.3-1.9-1.7   c0.4-0.2,0.7-0.1,0.9,0.1C30.6,43,31.3,43.2,31.1,44.2z M32.2,42.3c0.2,0.1,0.1,0.2,0.1,0.4l0,0.3c-0.1,0-0.2-0.1-0.3-0.2   c-0.1-0.1-0.1-0.2-0.1-0.3c0-0.1,0.1-0.2,0.1-0.2C32.1,42.3,32.1,42.2,32.2,42.3z M34,35.9c-0.6,1.2-1.4,2.3-2.2,3.3   c-0.4,0.5-0.9,0.9-1.4,1.2c-0.1,0.1-0.2,0.3,0.1,0.3c0.2,0,0.3,0,0.2,0.2c0,0.1-0.1,0.2-0.2,0.3c-0.4,0.1-0.7,0.1-1.1,0.1   c-0.1,0-0.2-0.1-0.2-0.2c0,0,0,0,0-0.1c0-0.1,0-0.1,0-0.2c-0.9-0.1-0.5-0.8-0.5-1.2c0-0.3,0-0.5,0-0.8c0.1-0.8,0-1.7-0.3-2.5   c-0.2-0.4-0.2-0.9-0.3-1.3c-0.1-1-0.5-1.9-1.1-2.7c-0.7-0.9-1.2-1.9-1.9-2.7c-0.2-0.2-0.2-0.5-0.6-0.5c-0.3,0-0.3-0.4-0.6-0.6   c-0.2,0.1-0.2,0.3-0.1,0.4c0.4,0.6,0.9,1.1,1.4,1.6c0.2,0.1,0.4,0.3,0.6,0.5c0.5,0.8,1,1.5,1.5,2.3c0.1,0.2,0.3,0.4,0,0.7   c-0.1,0.1,0,0.2,0,0.4c0.3,0.7,0.5,1.4,0.7,2.2c0,0.1,0,0.1,0,0.1c0.7,1.2,0.2,2.5,0.2,3.7c0,0.3-0.2,0.5-0.5,0.5   c-0.5,0.2-1,0.2-1.5,0.2c0.1,0.4,0.5,0.5,0.5,0.8c-0.5,0.5-0.6-0.3-1-0.2c0,0.2,0.3,0.3,0.2,0.6c-0.1,0.3-0.4,0.1-0.5,0.3   c0.2,0.3,0.6,0.1,0.9,0.3c-0.6,0.1-1.1,0.2-1.7,0.1c-0.5,0-0.5-0.1-0.6,0.3c-0.1,0.2-0.3,0.4-0.5,0.4c-0.9,0.3-1.8,0.5-2.7,0.5   c-1.4,0-2.7-0.3-4-0.8c-0.8-0.4-1.7-0.6-2.6-0.7c-0.3,0-0.5-0.1-0.8-0.2c-0.8-0.3-1.5-0.7-2.2-1.2c0.9,0,1.8,0.1,2.7,0.4   c-1.8-0.8-3-2.4-4.5-3.6c0.3-0.1,0.6,0.1,1-0.1c-0.2-0.1-0.4-0.2-0.6-0.2c-0.5-0.1-0.9-0.4-1.1-0.9c-0.2-0.5-0.5-1-0.8-1.4   C7.8,35.2,8,35.1,8.6,35c0.3,0,0.6,0.1,0.8,0.3c0.1-0.2,0-0.3-0.1-0.4l-0.3-0.4c-0.3,0-0.2,0.4-0.6,0.4c-0.6,0-0.8,0-0.9-0.6   c-0.1-0.9-0.5-1.8-0.1-2.7c-0.2-2.9,0.1-5.9,0.9-8.7l0-0.2c-0.2-0.1-0.4,0.3-0.5,0c-0.1-0.4,0.1-0.7,0.4-0.9   c0.3-0.1,0.6-0.2,0.9-0.3l0-0.1c-0.3-0.2-0.7,0.1-1.1,0c0.1-0.7,0.1-1.4,0-2c0-0.5-0.2-1-0.5-1.4c-0.3-0.4-0.3-0.7,0.2-1   c0.6-0.4,1.3-0.8,2.1-0.3c0.8,0.5,1.6,0,2.3-0.5c0.5-0.3,1-0.7,1.4-1.2c0-0.1,0.1-0.2,0.2-0.2c0.6,0.1,0.9-0.4,1.4-0.7   c0.4,0.3,0.5,0.6,0.1,1c-0.4,0.4-0.7,0.9-1,1.3c0.3-0.1,0.6-0.3,0.8-0.6c0.3-0.3,0.5-0.6,0.8-1c0.2-0.3,0.4-0.5,0.8-0.1   c0.4,0.3,0.9,0.5,1.4,0.6c-0.4,0.7-0.5,0.7-0.9,0.2c-0.4-0.4-0.4-0.4-0.7,0c-0.3,0.5-0.7,0.8-1.2,1c-0.1,0-0.1,0.1,0,0.3   c0.5-0.2,0.9,0,1.3,0.2c0.1,0.4-0.4,0.5-0.4,1c0.2-0.2,0.3-0.3,0.5-0.5c0.2-0.3,0.4-0.3,0.7-0.1c0.4,0.2,0.2,0.4,0,0.7   c-0.2,0.2-0.4,0.5-0.5,0.8c0.3-0.1,0.5-0.3,0.7-0.6c0.2-0.3,0.3-0.5,0.7-0.3c0.3,0.3,0.4,0.3,0,0.8c-0.3,0.3-0.5,0.6-0.6,1   c0.4-0.3,0.7-0.6,0.9-1c0.2-0.2,0.3-0.3,0.6-0.2c0.3,0.2,0.2,0.4,0,0.6c-0.1,0.1-0.2,0.3-0.3,0.5c0.3,0,0.4-0.2,0.5-0.4   c0.2-0.2,0.3-0.2,0.5-0.1c0.2,0.1,0.3,0.3,0.2,0.5c-0.3,0.4-0.5,0.8-0.7,1.2c0.6-0.3,0.6-0.9,1.1-1.2c0.4,0.2,0.8,0.5,1,0.9   c0.5,0.6,1.2,1,1.7,1.6c0.2,0.2,0.3,0.5,0.3,0.5c0.4-0.1,0.4,0.3,0.6,0.3c0.4,0.5,0.5,0.5,0.9,0.1c0.4-0.4,0.5-0.4,0.7,0   c0.1,0.1,0.2,0.3,0.1,0.4c-0.1,0.4,0,0.4,0.4,0.4c0.3,0,0.4,0.4,0.2,0.7c-0.2,0.2-0.4,0.4-0.5,0.6c0.2,0,0.3-0.1,0.4-0.2   c0.2-0.2,0.3-0.5,0.6-0.2c0.1,0.1,0.2,0.3,0.2,0.4c0,0.2-0.1,0.3-0.2,0.4c-0.2,0.2-0.3,0.3-0.5,0.5c0,0,0,0.1,0,0.1   c0.2-0.1,0.4-0.2,0.5-0.4c0.2-0.2,0.3-0.3,0.6-0.1c0.2,0.2,0.3,0.4,0.1,0.7c-0.3,0.3-0.5,0.6-0.8,0.8c-0.3,0.2-0.4,0.5-0.3,0.8   c0.3-0.6,0.8-1.1,1.5-1.5c0.3,0.2,0.4,0.5,0.5,0.9c0,0.3-0.6,0.4-0.7,0.8c0.2,0,0.3-0.1,0.4-0.2c0.2-0.1,0.4-0.5,0.7-0.2   c0.3,0.4,0.3,0.6-0.1,1c-0.3,0.1-0.5,0.4-0.6,0.7c0.3-0.3,0.6-0.5,1-0.7c0.2,0,0.2,0.2,0.3,0.3c0.4,0.7,0.4,0.7-0.3,1.2   c-0.3,0.2-0.6,0.3-0.7,0.7c0.4,0,0.5-0.4,0.8-0.6c0.3-0.1,0.6-0.3,0.8-0.5c0.1-0.2,0.2-0.2,0.4,0c0.1,0.2,0.2,0.1,0.2-0.1   c0-0.2,0-0.4,0.2-0.5l1.4-1l0.1,0.1c0.2,0.6,0,1-0.6,1.4c-0.4,0.2-0.8,0.5-1.1,0.8c-0.1,0.1-0.2,0.1-0.2,0c0,0.2-0.3-0.8-0.1,0   c0,0.2-0.1,0.3-0.3,0.4l-0.9,0.6c-0.2,0.1-0.3,0.3-0.4,0.5c0,0.1,0,0.3,0.1,0.3c0.1,0,0.1,0,0.2,0c0,0,0.1-0.1,0-0.1   c0-0.2,0.1-0.4,0.3-0.5c1-0.6,1.9-1.3,2.9-2l0.4-0.2c0.2,0.2,0.1,0.5,0.2,0.8c0.1,0.3-0.1,0.7-0.4,0.8c-0.6,0.4-1.1,0.8-1.8,1.2   c-0.3,0.1-0.5,0.4-0.6,0.7c0.8-0.7,1.7-1.2,2.7-1.8c0.1,0.1,0.2,0.3,0.2,0.5c0,0.1-0.1,0.2-0.1,0.3c0.1,0.9-0.4,1.4-1.1,1.9   c-0.2,0.1-0.4,0.3-0.5,0.6c0.5-0.1,0.8-0.7,1.3-0.8c0.2,0.1,0.2,0.3,0.1,0.5c-0.3,0.6,0,1.3-0.6,1.7c0,0,0,0.1,0,0.1   c0.4,0.5,0,1-0.3,1.4c-0.1,0.1-0.2,0.2-0.2,0.4c0.5-0.3,0.9-0.8,0.9-1.4c0-0.4,0.1-0.7,0.4-1c0.5-0.4,1-0.8,1.6-1.3   C34.3,34.9,34.3,35.4,34,35.9L34,35.9z M18,16.8c-0.3,0-0.5,0-0.6-0.4c0,0,0.1-0.1,0.1-0.1C17.8,16.4,18,16.5,18,16.8   C18.1,16.8,18.1,16.8,18,16.8L18,16.8z M18.7,17.8c-0.3,0-0.3,0-0.7-0.4C18.4,17.5,18.6,17.6,18.7,17.8z M16.8,16.4   c0,0.1,0,0.2,0,0.3c-0.4,0.1-0.6-0.1-0.9-0.3c0,0,0-0.1,0-0.1c0.2-0.3,0.4-0.7,0.7-0.6C17.1,15.8,16.7,16.2,16.8,16.4z M33.9,34.1   l-1.4,1.3c0.2-0.9-0.1-1.9,0.9-2.6c0.1-0.1,0.3-0.2,0.5-0.2c0.2,0.3,0.1,0.8,0.2,1.2C34.1,33.9,34,34,33.9,34.1z M34.7,26.3   c0.9,2.7,0.8,5.6-0.2,8.3c-0.2-0.8-0.4-1.6-0.3-2.3c0-0.2,0-0.5-0.1-0.7c-0.1-0.3-0.2-0.5-0.2-0.8c0,0.2-0.1,0.4-0.1,0.6   c0,0.9-0.1,1-1,1.5c-0.2-0.3-0.1-0.6-0.2-0.9c0.1-0.6,0.4-1.1,0.9-1.3c0.1-0.1,0.2-0.2,0.4,0c0.1-0.1,0.1-0.3,0.1-0.4   c-0.4-0.1-0.6,0.3-0.9,0.4c-0.2-0.3-0.2-0.7-0.2-1.1c0-0.4,0.7-0.4,0.7-0.9c-0.3,0-0.4,0.3-0.8,0.2c-0.2-0.4-0.5-0.8,0.1-1.2   c0.1-0.1,0.1-0.2,0.1-0.3c-0.1-0.1-0.2,0-0.3,0c-0.4,0.3-0.5,0.2-0.8-0.1c-0.2-0.3-0.1-0.5,0.3-0.7c0.3-0.1,0.6-0.1,0.9-0.1   c-0.5-0.5-0.6-0.5-1.3,0c-0.6-0.6-0.6-0.7,0.1-1.3c0.3-0.2,0.6-0.6,0.8-0.9c-0.7,0.2-0.9,0.8-1.5,1.1c-0.2-0.5-0.7-1,0-1.6   c-0.2-0.2-0.6,0.2-0.7-0.1c-0.1-0.3-0.1-0.6,0.1-0.8c0.1-0.2,0.4-0.4,0.3-0.6c-0.3,0-0.3,0.2-0.4,0.3c-0.2,0.2-0.5,0.3-0.7,0.2   c-0.3-0.1-0.4-0.3-0.4-0.6c0,0,0-0.1,0-0.1c0.1-0.3,0-0.3-0.2-0.2c-0.4,0-0.4-0.2-0.2-0.4c0.1-0.1,0.3-0.3,0.4-0.4   c0.3-0.1,0.5-0.4,0.6-0.6c-0.4,0.1-0.8,0.4-1.1,0.7c-0.3,0.2-0.5,0.2-0.7,0C28,20.8,28,20.7,28,20.6c0-0.1,0.1-0.2,0.1-0.2   c0.3-0.2,0.6-0.5,0.8-0.9c-0.3-0.1-0.4,0.1-0.5,0.3c-0.2,0.2-0.4,0.6-0.7,0.5c-0.3-0.1-0.6-0.4-0.7-0.7c0-0.3,0-0.3-0.3-0.3   c-0.5-0.1-0.7-0.6-1.1-0.9c-0.1-0.1-0.1-0.1-0.2-0.2c-0.6-0.6-0.7-0.6-1.2,0.1l-0.2,0.3c-0.4,0.4-0.5,0.4-0.9,0.1   c-0.1-0.1-0.2-0.2-0.2-0.3c0-0.1,0-0.2,0.1-0.3c0.3-0.3,0.5-0.6,0.6-1c-0.5,0.1-0.5,0.5-0.7,0.7c-0.4,0.5-0.5,0.5-0.9,0.1   c-0.2-0.2-0.2-0.4,0-0.6c0.2-0.2,0.4-0.4,0.6-0.7c-0.1,0-0.2-0.1-0.3-0.1c-0.4,0.3-0.8,0.7-1.1,1.2c-0.1,0.2-0.2,0.4-0.4,0.3   c-0.2-0.1-0.4-0.2-0.2-0.5c0.3-0.4,0.7-0.9,1.1-1.3c-0.4-0.1-0.4-0.1-1.6,1.4c-0.5-0.2-0.5-0.2-0.2-1c-0.1,0-0.3,0-0.3,0.2   c-0.2,0.3-0.4,0.3-0.7,0.1c-0.3-0.2-0.3-0.3-0.1-0.6c0.2-0.2,0.3-0.4,0.4-0.7c0.1-0.1,0.2-0.1,0.3-0.1c1.8,0.3,3.4,0.8,5,1.6   c1.9,1,3.8,1.9,5.7,2.6c1.2,0.5,2.1,1.4,2.7,2.5C33.7,23.6,34.3,24.9,34.7,26.3z M29.8,23.3c0.3,0.1,0.5,0.4,0.4,0.7   C29.9,23.9,29.9,23.9,29.8,23.3L29.8,23.3z"></path>
	<path class="st0" d="M9.5,9.9L9.5,9.9L9.5,9.9L9.5,9.9z M33,43.3L33,43.3L33,43.3z M6.5,11.2c0.7,1.1,1.3,2.3,2,3.5   C7.8,13.5,7.1,12.3,6.5,11.2z M8.7,9.9c0.6,0.9,0.8,2,0.6,3.1l0,0C9,12,8.8,10.9,8.7,9.9C8.7,9.9,8.7,9.9,8.7,9.9z M16.7,32.6   c0.5,1,1.1,1.9,1.8,2.7c-0.5-1-1.2-1.9-1.3-2.9l0.7,1.5c0.2,0.5,0.5,0.9,0.9,1.3c0.2,0.2,0.4,0.3,0.4,0.5c0.2,0.9,0.7,1.7,1.3,2.3   c0.1,0.1,0.2,0.3,0.1,0.4c-0.1,0.1-0.2-0.1-0.3-0.1c-0.2-0.2-0.3-0.3-0.4-0.5c-0.5-1.1-1.3-1.9-2-2.8c-0.4-0.5-0.7-1-1.1-1.6   C16.8,33.2,16.6,33,16.7,32.6z M16.6,18.8c0,0.1,0,0.3,0.1,0.3c1,0.2,1.1,1,1.4,1.6c0.6,1.3,1.7,2.2,3.1,2.5c0,0,0,0.1,0.1,0.2   c-0.6,0-1.3-0.1-1.9-0.3c0.7,0.7,1.4,1.4,2.2,2C21,25,17,22,16.8,21.5c0.8,0.3,1.1,0.9,2,1.1C17.8,22,18,20.8,17,20.3   c-0.4-0.3-0.6-0.8-0.7-1.2C16.2,18.9,16.4,18.8,16.6,18.8z M19.3,40c-0.5-0.3-1-0.7-1.4-1.3c-0.9-1.3-1.9-2.6-2.7-4   c-0.8-1.4-1.7-2.8-2.2-4.4c-0.2-0.5-0.3-1.1-0.3-1.6C14.1,33,16.4,36.6,19.3,40L19.3,40z M14.9,39.5c-0.7,0.2-0.9-0.2-1.5-0.1   c0.9,0.6,1.8,1.1,2.7,1.5c-2-0.4-3.7-1.4-5.1-2.9c0.6,0.1,1.2,0.2,1.8,0.4C13.5,38.7,14.1,39.1,14.9,39.5L14.9,39.5z M11.7,19.3   c0.6,0.3,1.1,0.6,0.9,1.3c-0.1,0.4,0.1,0.8,0.5,0.9c0.1,0,0.2,0.2,0.2,0.3c0.1,0.7,0.3,1.3,0.6,2c-0.6-0.4-1.1-1-1.3-1.7   C12.4,21,12,20.2,11.7,19.3z M16.8,43c0.7,0.1,1.4,0.1,2.1,0c0.6-0.1,1.3-0.1,1.9-0.1c0.8,0.1,1.6-0.1,2.3-0.6   c0.4-0.2,0.9-0.3,1.3-0.1c-1.2,0.7-2.5,1-3.9,1C19.2,43.1,17.8,43.6,16.8,43z M9.3,24.2c-0.2-0.6,0.2-1.2,0.4-1.8   c0.3-1.1,0.2-2.2-0.3-3.2C9,18.3,8.5,17.6,7.9,17c0.8,0,0.9,0.2,1.6,1.4C10.5,20.2,10.4,22.4,9.3,24.2C9.3,24.2,9.3,24.2,9.3,24.2z    M13,25.1c0.8,1.5,1.3,3.2,1.6,4.9c-0.5-0.9-0.5-1.7-0.8-2.5C13.4,26.6,13.2,25.8,13,25.1L13,25.1z"></path>
	<path class="st0" d="M15.4,40.3c1,0.4,2.1,0.7,3.2,1.2c0.6,0.3,1.2,0.4,1.8,0.3c0.2,0,0.3,0,0.5,0.1c-0.5,0.3-1.1,0.4-1.7,0.2   c-1-0.3-2-0.7-3-1.1C15.8,40.8,15.5,40.6,15.4,40.3z M13.5,32.9C13,32.3,12,29.1,12,28C12.4,29.7,12.9,31.3,13.5,32.9z M9.1,23.4   c0.1,0.3,0.1,0.6,0,0.9c-0.2,0.4-0.3,0.9-0.2,1.4c0.1,1-0.1,1.9-0.5,2.7C8.3,27.6,8.7,24.9,9.1,23.4L9.1,23.4L9.1,23.4z M25.9,34.7   c-1.1-2-2.3-4-3.4-6.1c0.2,0.2,0.3,0.5,0.4,0.7c0.8,1.4,1.5,2.7,2.3,4.1C25.5,33.8,25.7,34.3,25.9,34.7z M22.8,27.7   c-1.2-0.3-1.6-1.3-2.2-2.2c0.2-0.1,0.3-0.1,0.3,0c0.3,0.3,0.5,0.7,1,0.8C22.4,26.4,22.7,27.2,22.8,27.7z M21.5,40   c1.4,0.1,2.7,0.4,3.9,0.9c0.1,0.1,0.1,0.2-0.1,0.4c-0.2,0.1-0.3,0-0.4,0l-1.3-0.6C23.1,40.4,22.1,40.4,21.5,40L21.5,40z M9.2,33.9   c-0.3-0.2-0.3-0.5-0.6-0.7c0,0-0.1-0.2-0.1-0.2c0.1-0.6-0.3-1.4-0.1-2.1C8.5,31.8,8.8,32.8,9.2,33.9z M13.4,16.3   c0.7,1.1,1.4,2.3,2,3.5c-0.3-0.5-0.6-1-0.9-1.5c-0.3-0.6-0.6-1.1-0.9-1.6C13.4,16.4,13.4,16.3,13.4,16.3L13.4,16.3L13.4,16.3z    M27.9,38c-0.5-0.9-1.1-1.7-1.5-2.6c0.3,0.4,0.5,0.9,0.8,1.4C27.4,37.1,27.7,37.5,27.9,38L27.9,38z M11.8,38.5   c-0.8-0.7-1.8-1-2.3-2.1c0.2-0.1,0.4-0.1,0.5-0.1C10.5,37.2,11.3,37.7,11.8,38.5z M9.3,21.2c0.3-0.3-0.1-0.9,0.3-1.3   c0.1,1,0.3,2.1,0.6,3.1c-0.5-0.7-0.4-1.3-0.9-1.7L9.3,21.2L9.3,21.2z M14.6,28.2c0.5,0.8,0.8,1.6,1.4,2.7   C15.4,30,15,29.1,14.6,28.2z M13.6,20.9c-0.1-0.3-0.3-0.6-0.5-0.9C13.3,20.3,13.5,20.7,13.6,20.9z M25.3,39.8c-0.5,0-1-0.1-1.4-0.4   C24.5,39.4,24.9,39.6,25.3,39.8z M20.9,36.2c0.2,0.2,0.4,0.6,0.6,0.8C21.3,36.9,21.1,36.6,20.9,36.2L20.9,36.2z M8.5,29.9   C8.3,29.5,8.1,29.2,8,29C8.3,29.4,8.3,29.4,8.5,29.9z M15.5,27c-0.2-0.3-0.3-0.6-0.5-0.9C15.2,26.3,15.4,26.7,15.5,27z M18,31.1   c0.2,0.3,0.4,0.6,0.5,0.9C18.2,31.7,18.1,31.4,18,31.1z M33.2,37.2C33.2,37.3,33.1,37.3,33.2,37.2C33.1,37.3,33.1,37.3,33.2,37.2   C33.1,37.3,33.1,37.2,33.2,37.2z M34.2,29.3C34.2,29.3,34.2,29.3,34.2,29.3C34.3,29.2,34.3,29.3,34.2,29.3L34.2,29.3L34.2,29.3z    M5.9,4.1C6.4,5,6.8,5.8,7.3,6.7C6.8,5.8,6.3,4.9,5.9,4.1z M14.6,12c-0.4-1.3-0.9-2.6-1.3-3.9c0.5,0.2,0.6,0.6,0.7,1.1   c0.2,0.6,0.4,1.2,0.5,1.8C14.7,11.4,14.7,11.7,14.6,12z M10.6,4.9C10.6,4.9,10.6,4.9,10.6,4.9c0,0.1,0,0.1,0,0.1   C10.6,5,10.6,5,10.6,4.9C10.6,4.9,10.6,4.9,10.6,4.9z M14.6,7C14.6,7,14.6,7,14.6,7L14.6,7C14.5,7,14.5,7,14.6,7   C14.6,7,14.6,7,14.6,7z"></path>
</g>
</svg>