<svg xmlns="http://www.w3.org/2000/svg" width="44" height="50" fill="#194641" fill-rule="evenodd"><path d="M27.479 25.496c-.759-1.289-1.897-2.707-2.972-3.738-.885-.838-1.77-1.74-2.782-2.449-.569-.387-1.138-.838-1.517-1.418-.063-.129-.19-.322-.379-.193-.126.064-.126.258-.063.387 0 .129 0 .258.063.322a3.2 3.2 0 0 1 0 1.547c-.063.387-.19.838-.19 1.225 0 .322.063.58.253.838l.822 1.16c.822 1.096 1.581 2.256 1.96 3.609l.379 1.354c0 .064.063.129 0 .193-.126 0-.126-.129-.19-.258l-.569-1.611c-.443-1.031-.948-2.062-1.707-2.9-.316-.387-.695-.773-.885-1.289-.19-.387-.443-.58-.822-.58h-.822c-.632.064-1.264.129-1.897 0-1.075-.129-1.96-.645-2.529-1.611-.316-.58-.569-1.16-.695-1.74l-.379-1.676a37.37 37.37 0 0 0-2.086-7.348c-.506-1.16-1.138-2.256-1.96-3.223-.126-.193-.316-.387-.569-.451l-1.707-.58C6.11 5 5.92 5 5.73 5c-.063 0-.126.129-.063.129.126.129.19.258.316.387.253.322.506.58.695.967.506 1.289-.506 2.191-1.012 2.771-.316.322-.379.709-.443 1.16-.19 1.611-.885 3.029-1.897 4.189-.316.387-.569.773-.506 1.289.063.645-.063 1.289-.253 1.934-.126.645-.316 1.289-.506 1.934 0 .129-.063.193-.063.322 0 .064.063.129.126.129a1.58 1.58 0 0 0 .443-.258c.126-.064.19-.129.316 0s.063.193.063.322l-.443 1.998c-.126.516-.19 1.031-.19 1.547v.451c0 .193.126.258.316.193.759-.322 1.454-.773 2.023-1.418l1.012-1.225c.063-.064.126-.129.253-.064.063.064.126.129.063.258a6.28 6.28 0 0 0-.569 1.289c-.126.451-.316 1.934 0 2.965.253.773.506 1.547.885 2.256.379.645.695 1.354.885 2.063.063.129.126.322.19.451.063.064.126.064.19.064.126-.064.253-.129.316-.258.632-.58 1.264-1.225 1.707-1.998.253-.451.506-.967.695-1.418.126-.387.253-.516.759-.322l.885.387c.569.387 1.138.773 1.644 1.289.19.258.379.451.632.645.19.193.316.193.379-.064.19-.516.316-.967.316-1.482l.126-1.869c0-.064.063-.129.063-.193.063-.064.19 0 .253.064l.19.193c.379.387.822.773 1.138 1.225.948 1.096 1.834 2.256 2.403 3.609l.885 2.449c.569 1.418.948 2.9 1.328 4.383 0 .064 0 .193.19.258.19-.193.379-.387.569-.645.19-.193.379-.387.569-.516.885-.451 1.454-1.16 1.834-2.127.126-.451.379-.902.506-1.354 0-.064.063-.193.19-.129.063 0 .126.064.126.129.19.451.443.902.695 1.289.063.129.19.193.253.322.063.064.126 0 .19-.064.063-.129.063-.322.063-.516 0-.967.19-1.934.506-2.836.126-.322.19-.645.316-.902.253-.773.443-1.547.569-2.32.316-1.096.063-1.998-.379-2.836"/><path d="M21.976 37.851c0-.127-.064-.253-.064-.317-.514-2.153-1.22-4.243-2.055-6.27-.642-1.583-1.605-2.913-2.697-4.243a5.91 5.91 0 0 0-.899-.887c-.064-.063-.128-.19-.321-.127-.064.317 0 .697 0 1.013 0 .697-.128 1.33-.321 1.963-.321.887-.45.697-.963.19-.514-.57-1.156-1.077-1.798-1.583-.385-.253-.771-.507-1.22-.633-.257-.063-.321-.063-.45.19l-.578 1.267a6.64 6.64 0 0 1-2.119 2.47l-.385.19c-.128.063-.193 0-.257-.063s-.064-.127-.064-.19c-.193-.823-.642-1.52-1.027-2.28-.257-.443-.45-.887-.642-1.33-.45-1.077-.642-2.153-.514-3.357.064-.443.321-1.33.321-1.393-.064 0-.128.063-.257.19-.128.253-.193.317-.385.507-.514.507-1.092.95-1.798 1.203-.193.063-.385.127-.514.127-.193 0-.321-.063-.321-.253 0-.507 0-1.077.128-1.583l.45-2.153c.064-.443-.321-.19-.514-.127s-.45.443-.642.19c-.193-.19.064-.443.128-.633.45-1.203.706-2.47.899-3.737 0-.063.064-.19-.128-.19-.064 0-.064.063-.128.063-.128.127-.193.317-.321.443-1.092 1.71-1.798 3.547-2.183 5.51-.257 1.393-.45 2.85-.257 4.307a8.53 8.53 0 0 0 1.541 4.243 9.91 9.91 0 0 0 2.697 2.47c.514.317 1.027.633 1.413 1.013.706.633 1.477 1.267 2.248 1.773a.73.73 0 0 1 .321.443c.064.253.064.443.128.697.193.76.321 1.52.257 2.343-.064.633.128 1.203.385 1.71.193.317.321.38.642.19.257-.127.514-.317.771-.507.257-.127.514-.253.771-.253.385 0 .642.253.578.633 0 .19-.064.317-.128.443 0 .063-.064.19.064.253.064 0 .128 0 .193-.063.321-.19.578-.507.706-.95.064-.253.064-.443.128-.697 0-.063 0-.19.064-.253.128-.063.193.063.321.127.064.063.128.19.257.253.578.633 1.22 1.203 1.926 1.583a1.49 1.49 0 0 1 .45.443c.257.443.514.95.899 1.33.45.507 1.284.633 1.734.127.257-.317.642-.507 1.027-.57.257-.063.385-.19.514-.443a1.57 1.57 0 0 0 .064-1.203c-.064-.253-.193-.507-.257-.76s-.128-.317.128-.38c.385-.19.578-.443.706-.823a2.13 2.13 0 0 1 .963-1.14c.064-.063.128-.063.193-.127a.26.26 0 0 0 .193-.38M32.272 28c.527-1.789.395-3.578-.066-5.367-.066-.256-.132-.447-.264-.639-.066-.064-.132-.192-.198-.128-.198.128-.329.064-.395-.064a6.3 6.3 0 0 1-.725-1.086c-.198-.319-.725-1.597-.857-1.853-.725-1.278-1.581-2.428-2.701-3.387s-2.438-1.278-3.887-1.086c-1.12.192-2.108.575-2.899 1.406-.066.064-.132.064-.132.128h-.066c-.132-.064-.066-.128-.066-.256 0-.383.132-.767.264-1.15.791-1.917 1.911-3.578 3.69-4.856 1.054-.767 2.24-1.214 3.558-1.534C27.989 8 28.516 8 28.977 8c1.12 0 2.24 0 3.36.447l2.043.703c2.043.703 3.69 1.917 5.139 3.387 1.647 1.661 3.163 3.45 4.415 5.431 0 .064.066.064.066.128l-.066.064c-.264-.128-.395-.319-.593-.511l-2.701-2.62a28.16 28.16 0 0 0-4.942-3.834c-1.911-1.15-4.019-1.597-6.259-1.278-1.977.319-3.624 1.214-4.942 2.62-.198.192-.395.447-.461.575a.14.14 0 0 0 .132.128h.593c1.779.064 3.36.511 4.81 1.47 1.713 1.086 2.767 2.684 3.229 4.601 0 .128.066.256.066.319 0 .447.132.895.264 1.278.264.639.329 1.278.329 1.981 0 1.214-.198 2.428-.461 3.578-.264.575-.329 1.086-.725 1.534h0z"/><path d="M4.174 5.914v-.062c0-.186-.232-.434-.406-.434-.232-.062-.464.124-.522.372-.058.186 0 .496.174.62h.058c.29.124.696-.186.696-.496m-2.029-.186c-.29.062-.58.062-.87.248C.696 6.348 0 5.728 0 5.108c0-.248 0-.558.058-.806.116-.496.29-.93.754-1.116.638-.31.754-.496.87-1.178 0-.124.058-.248.174-.372s.232-.124.348 0c.058.062.116.186.174.31 0 .062 0 .186.058.31s.116.186.232.186.174-.124.232-.186c.116-.31.232-.558.29-.868 0-.124 0-.248.058-.372.058-.186.232-.248.406-.248.174-.062.29.062.348.248.058.248.058.496.174.744.058.124.232.124.348.062.174-.186.29-.372.406-.62s.232-.496.406-.682c.174-.248.406-.434.754-.496.232-.062.406 0 .522.186s.058.372-.058.496c-.174.124-.29.31-.406.496-.058.124-.116.31-.174.434 0 .062 0 .186.116.186.406-.062.58.186.696.496s.348.496.58.744c.348.248.522.62.522 1.054 0 .248.058.434.116.682a.42.42 0 0 1-.232.372 3 3 0 0 1-1.275-.062l-1.043-.372c-.406-.124-.812-.124-1.275-.124-.058 0-.116.062-.174.062-.058.124.058.186.116.186.348.248.638.62.928.93a2.11 2.11 0 0 1 .406.992c.058.434-.058.868-.348 1.178-.174.186-.986.868-1.101 1.86-.116 1.178-.58 2.17-1.101 3.162-.174.31-.406.62-.638.93-.058.062-.174.124-.29.062-.348-.248-.58-.496-.58-.992 0-.434-.116-.868-.232-1.24-.174-.496-.29-.992-.29-1.55 0-.496.058-.868.348-1.302.232-.372.522-.806.638-1.24.058-.124.116-.248.232-.248.174 0 .406 0 .464-.248.116-.248.174-.496.116-.806-.116-.124-.116-.372-.174-.496-.116-.062-.174-.124-.348-.124M31.89 30.482c-.267-.524-.267-1.113-.2-1.703a3.65 3.65 0 0 0-.2-1.179c-.067-.131-.067-.196-.133-.327s-.067-.262-.133-.393c-.067-.196 0-.262.2-.196.067 0 .2.131.267 0 0-.065 0-.131-.067-.196l-1.866-3.012-1.6-2.423c-.6-.917-1.4-1.572-2.266-2.161a5.04 5.04 0 0 0-2.133-.851c-.933-.131-1.799.065-2.599.458-.2.065-.2.262-.067.393a7.66 7.66 0 0 0 1.133.917c1.333.851 2.466 1.964 3.466 3.143.4.393 1.799 1.833 2.199 2.488l.6 1.048c.133.262.333.524.6.72.6.393.866.917.8 1.637v.589c0 .327.067.589.267.851.067.131.2.327.2.458.133 1.113.267 2.292.067 3.405-.067.262-.133.524-.067.851.067 0 .067 0 .133-.065s.133-.065.133-.131c.666-.982 1.133-2.095 1.333-3.34.067-.393.067-.72-.067-.982"/><path d="M26.323 14.845c.598-.671 1.197-1.208 1.975-1.611.12-.067.18-.067.299-.134a.92.92 0 0 1 .838 0c.299.201.658.403.957.671 1.137 1.007 2.154 2.147 2.932 3.49.658 1.074 1.077 2.282 1.316 3.557a22.69 22.69 0 0 1 .36 2.819v.268c0 .067-.12.134-.18.067-.12-.067-.18-.201-.299-.336-.299-.537-.598-1.074-.718-1.678-.299-1.342-.778-2.617-1.556-3.691-.658-.872-1.496-1.476-2.394-2.013-.359-.201-.778-.336-1.137-.537-.658-.336-1.316-.403-2.035-.403-.12 0-.598.067-.658-.067-.12.134.239-.268.299-.403M28 11.341c.625-.273 1.251-.341 1.807-.341h2.015c.764 0 1.459.273 2.224.545.278.136.417.273.347.545s.069.341.278.477c.486.273.834.681 1.112 1.09l.208.545c.069.613-.278 1.09-.903 1.158-.347.068-.695 0-1.042 0-.208 0-.486 0-.556.273v.068c-.347.409-.486.409-.834-.068l-1.737-2.112c-.695-.681-1.529-1.363-2.363-1.84-.208-.068-.417-.136-.556-.341m2.976 11.265c-.062-.254-.062-.571-.125-.825l-.436-1.332c-.623-1.269-1.558-2.41-2.618-3.362-.686-.634-1.558-1.015-2.493-1.078-1.184-.063-2.306.254-3.241 1.078 0 0 0 .063-.062.127h.187c1.122-.19 2.182-.063 3.241.507.81.381 1.434.951 2.057 1.586.686.698 1.184 1.586 1.683 2.41l1.184 2.03c.062.127.125.254.312.254a.35.35 0 0 0 .187-.317c.125-.381.187-.761.125-1.078M11 46.169c-.304.436-.669.653-1.096.726-.304.073-.669.073-.974 0s-.548 0-.73.218L6.374 48.42c-.183.145-.304.218-.487.29-.061.073-.183-.073-.183-.145 0-.29.122-.436.243-.653v-.145l-.122-.073c-.122 0-.243.073-.365.145-.73.363-1.461.653-2.13 1.089-.06.072-.181.072-.242.072h-.061c0-.073-.061-.145 0-.145.122-.218.304-.436.426-.581.73-.726 1.522-1.379 2.434-1.815 1.035-.436 1.887-1.307 2.556-2.323.365-.508.487-1.089.548-1.742 0-.29.122-.436.304-.581.243-.145.426-.363.669-.508.183-.145.365-.218.548-.29.304-.073.487.145.426.508-.122.508-.122 1.016-.426 1.379-.061.073-.061.145-.122.218l-.974 2.759c-.061.145.061.29.183.363a1.25 1.25 0 0 0 .73 0c.243 0 .426-.073.669-.073M14 49.872c.06-.128.119-.193.119-.257.657-.514 1.373-.899 2.149-1.092l1.552-.385c.119 0 .239-.064.299-.064.239-.128.358-.257.358-.514 0-.514 0-1.027-.119-1.541l-.239-1.156c-.06-.193 0-.321.119-.449.119-.064.239-.193.358-.257.537-.321.657-.128.716.385l.358 3.082c.119.899.239.963 1.075 1.22.299.064.537.128.836.064h.299l.119.064c0 .064 0 .064-.06.128-.299.193-.657.193-1.015.257a6.77 6.77 0 0 1-1.612 0c-.239-.064-.418-.064-.657 0-.358.064-.776.193-1.194.385-.179.064-.358.193-.537.257-.06 0-.119 0-.179-.064v-.128c0-.064 0-.064.06-.128.06-.128.239-.257.119-.449-.119-.128-.299-.064-.478-.064-.537.128-1.075.321-1.612.514-.239.064-.478.193-.836.193M2.967 6.609c-.08.217-.241.391-.641.391-.241 0-.481 0-.641-.043C1.203 6.913.641 6.826.16 6.87L0 6.826v-.087c.16-.087.241-.174.561-.348.401-.174 2.325-.565 2.325-.304.08.174.16.304.08.522"/><path d="M3.4 6c-.2 0-.4-.2-.4-.5s.3-.5.6-.5c.2 0 .4.2.4.5s-.3.5-.6.5"/></svg>