<svg xmlns="http://www.w3.org/2000/svg" xmlns:xlink="http://www.w3.org/1999/xlink" id="Layer_1" x="0px" y="0px" width="59px" height="27.5px" viewBox="0 0 59 27.5" style="enable-background:new 0 0 59 27.5;" xml:space="preserve">
<style type="text/css">
	.st0{fill:#194641;}
	.st1{fill-rule:evenodd;clip-rule:evenodd;fill:#194641;}
	.st2{fill-rule:evenodd;clip-rule:evenodd;fill:#F0F0ED;}
</style>
<path id="Ferme" class="st0" d="M0.1,15.5c0.6,0,1,0,1.3,0l0,0l1.8,0l2.4,0c0.4,0,0.9,0,1.5,0c0,0,0,0,0-0.1s0-0.1,0-0.1  c-0.8,0-1.3,0-1.7-0.1s-0.6-0.3-0.7-0.5c-0.1-0.2-0.2-0.6-0.2-1.1l0,0V8.3h1.7c0.9,0,1.6,0.2,2.1,0.6s0.8,0.9,0.8,1.5  c0,0,0,0.1,0.1,0.1c0.1,0,0.1,0,0.1-0.1l0,0l0-1.3c0-0.3,0-0.6,0-1.2l0,0l0-2.2c0,0,0,0-0.1,0c-0.1,0-0.1,0-0.1,0  c0,0.6-0.2,1-0.7,1.4C8,7.5,7.3,7.7,6.3,7.7l0,0H4.6V2.5c0-0.4,0.1-0.8,0.3-1C5.2,1.3,5.5,1.2,6,1.2l0,0h0.7c1,0,1.8,0.2,2.4,0.7  s1,1.1,1.3,2.1c0,0,0.1,0.1,0.2,0c0.1,0,0.1,0,0.1-0.1l0,0l0-3.2c0-0.1-0.1-0.2-0.2-0.2l0,0H0.2c0,0-0.1,0-0.1,0.1s0,0.1,0.1,0.1  c0.5,0,0.9,0,1.1,0.1C1.6,1,1.7,1.2,1.8,1.4S1.9,2,1.9,2.4l0,0v11.1c0,0.5,0,0.8-0.1,1.1c-0.1,0.2-0.3,0.4-0.5,0.5  c-0.3,0.1-0.7,0.1-1.2,0.1c0,0-0.1,0-0.1,0.1S0,15.5,0.1,15.5z M17.4,15.8c0.7,0,1.4-0.1,2-0.4s1.2-0.7,1.8-1.2c0,0,0-0.1,0-0.1  c0-0.1-0.1-0.1-0.1-0.1l0,0l0,0c-0.4,0.2-0.7,0.4-1.2,0.5c-0.4,0.1-0.8,0.2-1.2,0.2c-1.1,0-2-0.4-2.7-1.2c-0.6-0.8-1-1.9-1-3.3  c0-0.4,0-0.7,0.1-1l0,0l4.3,0h1.5c0.2,0,0.3-0.2,0.3-0.7c0-0.7-0.3-1.3-0.8-1.7C19.8,6.2,19,6,18,6c-1,0-2,0.2-2.8,0.7  c-0.8,0.5-1.5,1.1-2,1.9c-0.5,0.8-0.7,1.7-0.7,2.6c0,0.8,0.2,1.6,0.6,2.3c0.4,0.7,0.9,1.3,1.7,1.7C15.5,15.6,16.4,15.8,17.4,15.8z   M15.1,8.7c0.2-0.7,0.4-1.2,0.8-1.6c0.4-0.4,0.8-0.6,1.2-0.6c0.9,0,1.3,0.7,1.4,2.1l0,0L15.1,8.7z M22.8,15.5c0.4,0,0.7,0,1,0l0,0  l1.4,0l1.9,0c0.3,0,0.8,0,1.3,0c0.1,0,0.1,0,0.1-0.1s0-0.1-0.1-0.1c-0.8,0-1.4-0.1-1.7-0.3c-0.3-0.2-0.5-0.7-0.5-1.3l0,0V8.4  c0.4-0.4,0.7-0.6,0.9-0.8c0.2-0.1,0.4-0.2,0.5-0.2c0.1,0,0.3,0,0.4,0.1c0.1,0.1,0.2,0.2,0.4,0.3c0.2,0.2,0.3,0.3,0.5,0.4  c0.2,0.1,0.3,0.1,0.6,0.1c0.3,0,0.6-0.1,0.8-0.3c0.2-0.2,0.3-0.5,0.3-0.8c0-0.4-0.2-0.7-0.5-0.9S29.4,6,29,6c-0.3,0-0.7,0.1-1.1,0.4  c-0.4,0.3-1,0.7-1.6,1.4c0-0.6-0.1-1-0.3-1.3C25.8,6.2,25.7,6,25.5,6c0,0-0.1,0-0.2,0l0,0L22,7.7c0,0,0,0.1,0,0.1  c0,0.1,0.1,0.1,0.1,0.1l0,0h0c0.5-0.2,0.9-0.3,1.2-0.3c0.3,0,0.4,0.1,0.6,0.3S24,8.5,24,9l0,0v4.5c0,0.6-0.1,1.1-0.3,1.3  c-0.2,0.2-0.5,0.3-1,0.3c0,0-0.1,0-0.1,0.1S22.7,15.5,22.8,15.5z M31.8,15.5c0.4,0,0.7,0,1,0l0,0l1.4,0l1.4,0c0.2,0,0.6,0,1,0  c0,0,0.1,0,0.1-0.1s0-0.1-0.1-0.1c-0.5,0-0.8-0.1-1-0.3c-0.2-0.2-0.3-0.7-0.3-1.3l0,0V8.4c0.3-0.3,0.6-0.5,1-0.6  c0.4-0.2,0.8-0.2,1.1-0.2c0.6,0,1.1,0.2,1.4,0.6s0.4,1.1,0.4,1.9l0,0v3.5c0,0.6-0.1,1.1-0.3,1.3c-0.2,0.2-0.5,0.3-1,0.3  c0,0-0.1,0-0.1,0.1s0,0.1,0.1,0.1c0.4,0,0.8,0,1,0l0,0l1.4,0l1.4,0c0.2,0,0.6,0,1,0c0.1,0,0.1,0,0.1-0.1s0-0.1-0.1-0.1  c-0.5,0-0.8-0.1-1-0.3c-0.2-0.2-0.3-0.7-0.3-1.3l0,0v-5c0.3-0.3,0.6-0.5,1-0.7c0.4-0.2,0.8-0.3,1.2-0.3c0.6,0,1.1,0.2,1.4,0.6  c0.3,0.4,0.4,1.1,0.4,1.9l0,0v3.5c0,0.6-0.1,1.1-0.3,1.3c-0.2,0.2-0.5,0.3-1,0.3c0,0-0.1,0-0.1,0.1s0,0.1,0.1,0.1c0.4,0,0.8,0,1,0  l0,0l1.4,0l1.4,0c0.2,0,0.6,0,1,0c0.1,0,0.1,0,0.1-0.1s0-0.1-0.1-0.1c-0.5,0-0.8-0.1-1-0.3c-0.2-0.2-0.3-0.7-0.3-1.3l0,0V8.9  c0-1-0.2-1.8-0.7-2.3c-0.5-0.5-1.1-0.7-2-0.7c-1.3,0-2.6,0.7-3.7,2.1c-0.1-0.7-0.4-1.2-0.8-1.6s-1-0.6-1.8-0.6  c-1.2,0-2.4,0.6-3.5,1.9c0-0.6-0.1-1-0.3-1.4C34.9,6.2,34.8,6,34.6,6c0,0-0.1,0-0.2,0l0,0l-3.3,1.6c0,0,0,0.1,0,0.1  c0,0.1,0.1,0.1,0.1,0.1l0,0h0c0.5-0.2,0.9-0.3,1.2-0.3c0.3,0,0.4,0.1,0.6,0.3c0.1,0.2,0.2,0.6,0.2,1.1l0,0v4.5  c0,0.6-0.1,1.1-0.3,1.3c-0.2,0.2-0.5,0.3-1,0.3c0,0-0.1,0-0.1,0.1S31.8,15.5,31.8,15.5z M55.2,15.8c0.7,0,1.4-0.1,2-0.4  s1.2-0.7,1.8-1.2c0,0,0-0.1,0-0.1c0-0.1-0.1-0.1-0.1-0.1l0,0l0,0c-0.4,0.2-0.7,0.4-1.2,0.5c-0.4,0.1-0.8,0.2-1.2,0.2  c-1.1,0-2-0.4-2.7-1.2c-0.6-0.8-1-1.9-1-3.3c0-0.4,0-0.7,0.1-1l0,0l4.3,0h1.5c0.2,0,0.3-0.2,0.3-0.7c0-0.7-0.3-1.3-0.8-1.7  C57.6,6.2,56.8,6,55.8,6c-1,0-2,0.2-2.8,0.7c-0.8,0.5-1.5,1.1-2,1.9c-0.5,0.8-0.7,1.7-0.7,2.6c0,0.8,0.2,1.6,0.6,2.3  c0.4,0.7,0.9,1.3,1.7,1.7C53.3,15.6,54.2,15.8,55.2,15.8z M52.9,8.7c0.2-0.7,0.4-1.2,0.8-1.6c0.4-0.4,0.8-0.6,1.2-0.6  c0.9,0,1.3,0.7,1.4,2.1l0,0L52.9,8.7z"></path>
<path id="est.1982" class="st0" d="M15.8,27.5c0.3,0,0.6-0.1,0.9-0.2c0.3-0.1,0.5-0.3,0.7-0.5l0,0l-0.3-0.4  c-0.2,0.2-0.3,0.3-0.6,0.4C16.3,27,16.1,27,15.8,27c-0.5,0-0.8-0.1-1.2-0.4s-0.5-0.6-0.5-1.1l0,0h3.5l0-0.2c0-0.4-0.1-0.8-0.3-1.1  c-0.2-0.3-0.4-0.6-0.7-0.8c-0.3-0.2-0.7-0.3-1-0.3c-0.4,0-0.7,0.1-1.1,0.3c-0.3,0.2-0.6,0.4-0.7,0.8s-0.3,0.7-0.3,1.1  s0.1,0.8,0.3,1.1c0.2,0.3,0.4,0.6,0.8,0.8C15,27.4,15.4,27.5,15.8,27.5z M17.2,25.1h-3c0-0.4,0.2-0.8,0.5-1c0.3-0.3,0.6-0.4,1-0.4  c0.4,0,0.8,0.1,1,0.4C17,24.4,17.1,24.7,17.2,25.1L17.2,25.1z M20,27.5c0.5,0,1-0.1,1.3-0.3s0.5-0.5,0.5-0.9c0-0.3-0.1-0.5-0.2-0.6  s-0.3-0.3-0.5-0.3c-0.2-0.1-0.5-0.1-0.8-0.2c-0.3,0-0.5-0.1-0.6-0.1s-0.3-0.1-0.4-0.2S19,24.6,19,24.4c0-0.2,0.1-0.4,0.3-0.5  c0.2-0.1,0.5-0.2,0.8-0.2c0.5,0,0.9,0.1,1.2,0.4l0,0l0.2-0.5c-0.2-0.1-0.4-0.2-0.7-0.3s-0.5-0.1-0.8-0.1c-0.5,0-0.9,0.1-1.2,0.3  s-0.4,0.5-0.4,0.9c0,0.3,0.1,0.5,0.2,0.7s0.3,0.3,0.5,0.3c0.2,0.1,0.5,0.1,0.8,0.2c0.3,0,0.5,0.1,0.6,0.1s0.3,0.1,0.4,0.2  s0.2,0.2,0.2,0.4c0,0.2-0.1,0.4-0.3,0.5C20.7,27,20.4,27,20,27c-0.3,0-0.6,0-0.8-0.1c-0.3-0.1-0.5-0.2-0.7-0.3l0,0L18.3,27  c0.2,0.1,0.4,0.3,0.7,0.4C19.3,27.5,19.7,27.5,20,27.5z M24.1,27.5c0.2,0,0.3,0,0.5-0.1s0.3-0.1,0.4-0.2l0,0l-0.2-0.4  c-0.1,0.1-0.2,0.1-0.3,0.2c-0.1,0-0.2,0.1-0.3,0.1c-0.2,0-0.4-0.1-0.5-0.2c-0.1-0.1-0.2-0.3-0.2-0.6l0,0v-2.5h1.3v-0.5h-1.3v-0.9  h-0.6v0.9h-0.8v0.5h0.8v2.5c0,0.4,0.1,0.7,0.3,0.9S23.7,27.5,24.1,27.5z M26.1,27.5c0.1,0,0.2,0,0.3-0.1c0.1-0.1,0.1-0.2,0.1-0.3  c0-0.1,0-0.2-0.1-0.3c-0.1-0.1-0.2-0.1-0.3-0.1c-0.1,0-0.2,0-0.3,0.1c-0.1,0.1-0.1,0.2-0.1,0.3c0,0.1,0,0.2,0.1,0.3  C25.9,27.5,26,27.5,26.1,27.5z M31,27.5v-5.6h-1.9v0.5h1.3v5.1H31z M33.8,27.5c0.5,0,1-0.1,1.3-0.3s0.7-0.5,0.9-1s0.3-1,0.3-1.6  c0-0.9-0.2-1.6-0.6-2.1s-1-0.7-1.7-0.7c-0.4,0-0.7,0.1-1,0.2c-0.3,0.1-0.5,0.3-0.7,0.6s-0.2,0.6-0.2,0.9c0,0.3,0.1,0.6,0.2,0.9  c0.2,0.3,0.4,0.4,0.7,0.6c0.3,0.1,0.6,0.2,1,0.2c0.4,0,0.7-0.1,1-0.3s0.5-0.4,0.7-0.7c0,0.2,0,0.3,0,0.5c0,0.7-0.2,1.3-0.5,1.7  c-0.4,0.4-0.8,0.6-1.5,0.6c-0.5,0-0.8-0.1-1.1-0.3l0,0l-0.2,0.5C32.8,27.4,33.3,27.5,33.8,27.5z M34.2,24.8c-0.4,0-0.8-0.1-1-0.3  c-0.3-0.2-0.4-0.5-0.4-0.9s0.1-0.7,0.4-0.9c0.3-0.2,0.6-0.3,1-0.3c0.3,0,0.6,0.1,0.8,0.2s0.4,0.3,0.5,0.4c0.1,0.2,0.2,0.4,0.2,0.6  c0,0.2-0.1,0.4-0.2,0.6c-0.1,0.2-0.3,0.3-0.5,0.4S34.4,24.8,34.2,24.8z M39.3,27.5c0.4,0,0.8-0.1,1.2-0.2c0.3-0.1,0.6-0.3,0.8-0.6  s0.3-0.5,0.3-0.9c0-0.3-0.1-0.6-0.3-0.8c-0.2-0.2-0.5-0.4-0.8-0.5c0.3-0.1,0.5-0.3,0.7-0.5s0.2-0.5,0.2-0.7c0-0.3-0.1-0.6-0.2-0.8  c-0.2-0.2-0.4-0.4-0.7-0.5c-0.3-0.1-0.6-0.2-1-0.2c-0.6,0-1.1,0.1-1.4,0.4c-0.4,0.3-0.5,0.6-0.5,1.1c0,0.3,0.1,0.5,0.2,0.7  c0.1,0.2,0.4,0.4,0.7,0.5c-0.4,0.1-0.6,0.3-0.8,0.5c-0.2,0.2-0.3,0.5-0.3,0.9c0,0.5,0.2,0.9,0.6,1.2C38.1,27.4,38.7,27.5,39.3,27.5z   M39.3,24.4c-0.4,0-0.8-0.1-1-0.3c-0.2-0.2-0.4-0.4-0.4-0.7s0.1-0.6,0.4-0.7c0.2-0.2,0.6-0.3,1-0.3c0.4,0,0.8,0.1,1,0.3  c0.3,0.2,0.4,0.4,0.4,0.7c0,0.3-0.1,0.5-0.4,0.7C40.1,24.3,39.8,24.4,39.3,24.4z M39.3,27.1c-0.5,0-0.9-0.1-1.2-0.3  c-0.3-0.2-0.4-0.5-0.4-0.8c0-0.3,0.1-0.6,0.4-0.8c0.3-0.2,0.7-0.3,1.2-0.3c0.5,0,0.9,0.1,1.2,0.3s0.4,0.5,0.4,0.8  c0,0.3-0.1,0.6-0.4,0.8S39.8,27.1,39.3,27.1z M46.1,27.5V27h-3.1l1.9-1.9c0.4-0.3,0.6-0.7,0.7-0.9c0.1-0.3,0.2-0.5,0.2-0.8  c0-0.5-0.2-0.8-0.5-1.1c-0.3-0.3-0.8-0.4-1.4-0.4c-0.4,0-0.8,0.1-1.1,0.2c-0.3,0.1-0.6,0.3-0.8,0.6l0,0l0.4,0.4  c0.4-0.4,0.9-0.6,1.5-0.6c0.4,0,0.7,0.1,1,0.3c0.2,0.2,0.3,0.4,0.3,0.8c0,0.2-0.1,0.4-0.2,0.6s-0.3,0.5-0.6,0.7l0,0l-2.3,2.3v0.4  H46.1z"></path>
</svg>