<svg xmlns="http://www.w3.org/2000/svg" xmlns:xlink="http://www.w3.org/1999/xlink" id="Layer_1" x="0px" y="0px" width="51px" height="54px" viewBox="0 0 51 54" style="enable-background:new 0 0 51 54;" xml:space="preserve">
<style type="text/css">
	.st0{fill:#194641;}
</style>
<g>
	<path class="st0" d="M22.3,1.1c0.3-0.1,0.6,0.3,0.7,0c0.5-0.7,1.2-0.5,1.8-0.4l2.9,0.5C28,1.4,28.3,1.4,28.2,1   c-0.1-0.8,0.3-0.8,0.8-0.5c0.8,0.4,1.5,0.8,2.2,1.3c0.6,0.4,1.2,0.8,2,0.7c0.6,0,1.1,0.5,1.6,0.7C37,4,38.7,5.7,40.6,7   c1.8,1.2,2.4,3,3.4,4.7c0.3,0.5,0.4,1.1,1.3,1.2c0.4,0,0.4,0.7,0.6,1.1l2,5.8c0.1,0.2,0.2,0.5,0.4,0.7c-0.1-1-0.1-2-0.7-3   c-0.2-0.4-0.3-0.8,0.2-1.3c0.9,1.5,1,3.1,1.3,4.6c0.3,1.5,0.9,2.9,0.5,4.4c0.5,0,0.5-0.4,0.8-0.4c0.2,0.1,0.2,0.3,0.2,0.5   c-0.2,2.2-0.3,4.5-0.6,6.7C49.7,34,49.2,36,48,37.8c-1.5,2.3-2.4,4.8-3.9,7.1c-0.2,0.3-0.4,0.8-0.8,1.1c-0.4-0.8,0.2-1.2,0.4-1.7   c-0.9,0.5-1.6,1.5-1.7,2.5c-0.1,0.3-0.3,0.6-0.4,0.8c-0.6,0.7-1.3,1.3-2.1,1.8c-0.4,0.3-0.9,0.4-1.1,1c-0.1,0.5-0.9,0.6-1.4,0.6   c-0.9,0.2-1.7,0.4-2.6,0.8c-0.6,0.2-1.2,0.4-1.8,0.1c-0.2-0.1-0.3-0.2-0.5-0.1c-2.9,1.1-6,0.8-9.1,0.8c-1.1,0-2.3,0.1-3.3-0.8   c-0.3-0.2-0.8-0.3-1.1-0.4c-1.3-0.5-2.6-0.9-3.8-1.9c-0.9-0.7-2-1.1-3.1-1.7c-1.3-0.7-2.7-1.3-3.4-2.9c-0.1-0.2-0.4-0.5-0.7-0.6   c-1.6-0.7-2.4-2.4-3.5-3.6c-0.6-0.6-0.7-1.6-1-2.5C2.3,36,1.4,33.9,1,31.5C0.2,28,0.2,24.3,1,20.8c0.2-1.1,0.5-2.1,0.9-3.1   c0.3-0.6-0.1-1.1,0.2-1.7c1.1-2.4,2.2-4.7,4.4-6.3c0.1-0.1,0.3-0.2,0.4-0.4C7.7,7.8,9.2,7.1,10.5,6l0.8-0.7c0.9-0.9,2-1.6,3.3-2.1   c1.8-0.7,3.6-1.4,5.3-2.3c0.7-0.3,1.4-0.4,2.2-0.6c0.5-0.2,0.8,0.1,0.9,0.6C22.8,1.1,22.5,1.1,22.3,1.1c-0.3,0.2-0.7,0.1-1.2,0.5   C21.1,1.6,22.3,1.1,22.3,1.1z M49.4,28.9c0.7-1,0.3-2,0.3-3C49.4,27,49.4,27.9,49.4,28.9c-0.1,0.3,0,0.6,0.1,1.1   C49.9,29.5,49.7,29.2,49.4,28.9z M6.5,19.5c0,0.1-0.1,0.1-0.1,0.2c-0.8-0.3-1.5-0.5-2.3-0.8c-0.8-0.3-0.9-0.2-1.2,0.6   c-0.3,1.2-0.7,2.3-0.9,3.5c-0.2,1.2-0.7,2.5,0.3,3.7c0.1,0.2,0.1,0.4,0,0.6c0,0.9-0.1,1.8,0,2.7c0,1.6,0.4,3.2,1,4.7   c0.2,0.6,0.6,0.7,1.1,0.5C5.3,35,6.3,34.6,7.1,34c0.6-0.4,1.2-0.5,1.6,0.2C7.9,34.9,7,35.5,6,35.8c-0.5,0.1-0.9,0.4-1.3,0.6   s-0.5,0.5-0.2,0.9c0.7,0.8,1.1,1.8,1.7,2.6c0.6,0.7,1.3,1.5,1.6,2.3c0.3,0.8,0.8,1.3,1.4,1.9c0.6,0.5,1.1,0.9,1.7,1.3   c1.3,1,2.8,1.8,4.3,2.6c0.5,0.2,0.8,0.4,1.2-0.2c0.4-0.6,1-1.1,1.7-1.4c-0.1,0.9-0.5,1.6-0.6,2.4c1.1,0.6,2.1,1,3.2,1.3   c4.3,1.1,8.6,1.3,12.8-0.3c1-0.4,1.2-0.8,0.8-1.8c-0.5-1.2-1.1-2.3-1.2-3.6c0.5-0.2,0.6,0.2,0.7,0.5c0.4,0.8,0.9,1.6,1.3,2.5   c0.3,0.7,0.7,0.7,1.2,0.4c2-1.2,4-2.1,5.2-4.3c0.1-0.2,0.3-0.4,0.4-0.5c1.4-1.3,2.4-2.9,3.2-4.6c0.9-1.8,0.9-1.8-0.9-2.5   c-0.5,0-0.9-0.2-0.9-0.8c0.7-0.1,1.3,0.3,1.9,0.5c1.2,0.5,1.6,0.4,2-0.8c0.1-0.3,0.2-0.6,0.2-0.9c0.3-3,0.1-6,0.2-9.1   c0-0.5,0-1-0.3-1.4c-0.5-0.6-0.6-1.2-0.8-1.8c-0.2-0.8-0.4-1.6-0.6-2.3c-0.2-0.8-0.4-0.8-1.1-0.4c-0.8,0.4-1.7,0.7-2.5,1.2   c-0.5,0.3-1.1,0.3-1.7,0.1c0.1-0.1,0.1-0.2,0.2-0.3l2.8-1.6c0.5-0.3,1.3-0.5,1.4-0.9c0.1-0.7-0.4-1.4-0.6-2c0-0.1-0.1-0.1-0.2-0.2   c-1.1-1.9-2.5-3.5-3.7-5.3c-1.3-1.8-3.1-2.8-4.9-3.9c-0.5-0.3-0.8-0.1-1,0.4C34.2,6.6,34,7,33.6,7.2C33.3,7.4,33,7.3,33,6.9   c0-0.2,0-0.4,0.2-0.6c0.3-0.4,0.8-0.8,0.6-1.4c-0.2-0.5-0.9-0.5-1.4-0.8c-0.3-0.2-0.7-0.3-1-0.4c-2.6-0.1-5.3-0.7-7.9-0.7   C21.2,3,19,3.3,16.8,4.1c-0.5,0.3-0.6,0.5-0.5,1.1c0.3,0.9,0.6,1.6,0.9,2.4c0.2,0.4,0.4,0.9-0.1,1.5c-0.8-1.5-1.4-2.7-2.2-4.2   l-3.1,1.4c-0.4,0.2-0.6,0.4-0.8,0.7c-0.9,1.5-2,2.9-3.4,3.9c-0.4,0.3-0.8,0.8-1.1,1.2c-1,1.5-2,2.9-2.8,4.5   c-0.5,0.9-0.5,1.1,0.5,1.6C5.1,18.5,5.8,19,6.5,19.5L6.5,19.5z M36.4,50.1c1-0.4,2.1-0.8,3.1-1.8C38.2,48.8,37.2,49.1,36.4,50.1z    M48.4,33c-0.3,0.5-0.5,0.7-0.5,1.1c0,0,0.1,0.1,0.2,0.1C48.3,33.9,48.5,33.6,48.4,33L48.4,33z M45.8,16c0.1-0.2,0-0.4-0.2-0.6   C45.5,15.8,45.7,15.9,45.8,16z"></path>
	<path class="st0" d="M27.2,28.4c-0.4,0.5-1,0.7-1.5,0.9c-1.1,0.4-2,0-2.8-0.8c-0.8-0.8-0.6-1.6-0.4-2.5c0.1-0.3,0.2-0.6,0.4-0.8   c0.8-0.8,0.5-1.6,0-2.3c-0.9-1.2-1.3-2.7-2.1-3.9c-0.6-1-0.9-2.2-1.7-3c-0.5-0.6-0.4-1.3-0.6-1.9c-0.1-0.5,0.1-1,0.7-0.9   c0.6,0.1,0.8-0.1,0.7-0.7c0-0.2,0.1-0.3,0.3-0.3c0.2,0,0.4,0.1,0.4,0.3c0.2,1.6,1.2,2.9,1.9,4.3c0,0.1,0.2,0.2,0.2,0.3   c-0.1,1.9,1.1,3.2,1.7,4.9c0.3,0.9,0.9,1.5,2,1.5c0.7,0,1.3,0.8,1.4,1.8c0.1,0.3,0,0.5,0,0.8c0,0.3,0.1,0.4,0.5,0.5   c3.3,0.5,6.6,1.8,10,2.3c1.3,0.2,2.5,0.7,3.8,1.2c0.4,0.2,1,0.3,0.9,1c-0.2,0.6-0.7,0.8-1.2,0.7c-0.4-0.1-0.8-0.1-1.2-0.2   c-0.9-0.2-1.9-0.5-2.8-0.7c-2.8-0.9-5.7-1.7-8.6-2.5C28.5,28.3,27.8,28.3,27.2,28.4z"></path>
</g>
</svg>