<svg xmlns="http://www.w3.org/2000/svg" width="40" height="41" viewBox="0 0 40 41" fill="none"><path d="M1.84783 19.7651C1.37959 19.7651 1 20.147 1 20.6181C1 21.0368 1.29992 21.3851 1.69543 21.4573L1.84783 21.471H39.1522C39.6204 21.471 40 21.0891 40 20.6181C40 20.1994 39.7001 19.8511 39.3046 19.7789L39.1522 19.7651H1.84783Z" fill="black"/><path d="M26.1865 6.36792C25.8554 6.03483 25.3185 6.03483 24.9875 6.36792C24.6931 6.66401 24.6604 7.12361 24.8893 7.45604L24.9875 7.57416L37.9533 20.6181L24.9875 33.662C24.6931 33.9581 24.6604 34.4177 24.8893 34.7502L24.9875 34.8683C25.2818 35.1644 25.7386 35.1973 26.069 34.967L26.1865 34.8683L39.7517 21.2212C40.046 20.9251 40.0787 20.4655 39.8498 20.1331L39.7517 20.015L26.1865 6.36792Z" fill="black"/></svg>