<svg xmlns="http://www.w3.org/2000/svg" viewBox="0 0 146 160" width="146" class="vamtam-empty-wishlist-icon"><path d="M118.9 0a4.9 4.9 0 0 1 4.895 4.682l.005.218v110.91a.9.9 0 0 1-1.793.112l-.007-.113V4.9a3.1 3.1 0 0 0-2.924-3.095L118.9 1.8H4.9a3.1 3.1 0 0 0-3.095 2.924L1.8 4.9v136.045C1.8 150.363 9.431 158 18.841 158h.004l.1-.01.44-.063.507-.086c.495-.09 1.033-.203 1.604-.345 2.04-.505 4.078-1.254 5.973-2.288 5.355-2.922 8.531-7.49 8.531-14.165V135.9a2.9 2.9 0 0 1 2.9-2.9h104a2.9 2.9 0 0 1 2.9 2.9v5.143c0 10.36-8.465 18.757-18.9 18.757H18.841C8.55 159.8.184 151.54.003 141.284L0 140.945V4.9A4.9 4.9 0 0 1 4.682.005L4.9 0h114Zm24 134.8h-104a1.1 1.1 0 0 0-1.1 1.1v5.143c0 7.388-3.574 12.529-9.469 15.745-.743.405-1.503.77-2.276 1.094l-.292.118H126.9c9.336 0 16.924-7.422 17.097-16.635l.003-.322V135.9a1.1 1.1 0 0 0-1.1-1.1ZM94.9 93a.9.9 0 0 1 .113 1.793l-.113.007h-65a.9.9 0 0 1-.113-1.793L29.9 93h65Zm0-28a.9.9 0 0 1 .113 1.793l-.113.007h-65a.9.9 0 0 1-.113-1.793L29.9 65h65ZM62.587 27.434a7.661 7.661 0 0 1 7.606-2.167c3.318.897 5.618 3.886 5.607 7.294a7.442 7.442 0 0 1-2.494 5.553L63.041 48.532a.9.9 0 0 1-1.281 0L51.168 37.826a7.49 7.49 0 0 1-1.694-7.89c1.02-2.73 3.536-4.633 6.462-4.893a7.654 7.654 0 0 1 6.415 2.55l.046.054Zm7.136-.43c-2.536-.685-5.221.396-6.55 2.634a.9.9 0 0 1-1.546.002 5.837 5.837 0 0 0-5.532-2.805c-2.237.198-4.158 1.652-4.935 3.731a5.69 5.69 0 0 0 1.289 5.994l9.949 10.059 9.672-9.812a5.688 5.688 0 0 0 1.923-3.98l.007-.27c.008-2.591-1.743-4.868-4.277-5.553ZM93.9 36.5a.9.9 0 0 1 .113 1.793l-.113.007h-14a.9.9 0 0 1-.113-1.793l.113-.007h14Zm-50-1a.9.9 0 0 1 .113 1.793l-.113.007h-14a.9.9 0 0 1-.113-1.793l.113-.007h14Z" fill="#111" fill-rule="nonzero"/>
</svg>