<svg xmlns="http://www.w3.org/2000/svg" xmlns:xlink="http://www.w3.org/1999/xlink" width="638" height="17" viewBox="0 0 638 17"><defs><path id="a" d="M0 0h638v17H0z"></path></defs><g fill="none" fill-rule="evenodd"><mask id="b" fill="#fff"><use xlink:href="#a"></use></mask><path stroke="#133A17" stroke-width=".5" stroke-linecap="square" mask="url(#b)" d="m-18.5 33.5 44-44M-26.5 33.5l44-44M-34.5 33.5l44-44M53.5 33.5l44-44M300.5 33.5l44-44M547.5 33.5l44-44M108.5 33.5l44-44M355.5 33.5l44-44M602.5 33.5l44-44M45.5 33.5l44-44M292.5 33.5l44-44M539.5 33.5l44-44M172.5 33.5l44-44M419.5 33.5l44-44M13.5 33.5l44-44M260.5 33.5l44-44M507.5 33.5l44-44M140.5 33.5l44-44M387.5 33.5l44-44M634.5 33.5l44-44M77.5 33.5l44-44M324.5 33.5l44-44M571.5 33.5l44-44M204.5 33.5l44-44M451.5 33.5l44-44M-10.5 33.5l44-44M236.5 33.5l44-44M483.5 33.5l44-44M116.5 33.5l44-44M363.5 33.5l44-44M610.5 33.5l44-44M180.5 33.5l44-44M427.5 33.5l44-44M21.5 33.5l44-44M268.5 33.5l44-44M515.5 33.5l44-44M148.5 33.5l44-44M395.5 33.5l44-44M85.5 33.5l44-44M332.5 33.5l44-44M579.5 33.5l44-44M212.5 33.5l44-44M459.5 33.5l44-44M-2.5 33.5l44-44M244.5 33.5l44-44M491.5 33.5l44-44M124.5 33.5l44-44M371.5 33.5l44-44M618.5 33.5l44-44M61.5 33.5l44-44M308.5 33.5l44-44M555.5 33.5l44-44M188.5 33.5l44-44M435.5 33.5l44-44M29.5 33.5l44-44M276.5 33.5l44-44M523.5 33.5l44-44M156.5 33.5l44-44M403.5 33.5l44-44M92.5 33.5l44-44M340.5 33.5l44-44M587.5 33.5l44-44M220.5 33.5l44-44M467.5 33.5l44-44M5.5 33.5l44-44M252.5 33.5l44-44M499.5 33.5l44-44M132.5 33.5l44-44M379.5 33.5l44-44M626.5 33.5l44-44M69.5 33.5l44-44M316.5 33.5l44-44M563.5 33.5l44-44M196.5 33.5l44-44M443.5 33.5l44-44M37.5 33.5l44-44M284.5 33.5l44-44M531.5 33.5l44-44M164.5 33.5l44-44M411.5 33.5l44-44M100.5 33.5l44-44M347.5 33.5l44-44M595.5 33.5l44-44M228.5 33.5l44-44M475.5 33.5l44-44"></path></g></svg>